<?xml version="1.0" encoding="UTF-8" standalone="no"?>
<!-- Created with Inkscape (http://www.inkscape.org/) -->

<svg
   version="1.1"
   id="svg2"
   width="793.33331"
   height="1122.6667"
   viewBox="0 0 793.33331 1122.6667"
   xmlns="http://www.w3.org/2000/svg"
   xmlns:svg="http://www.w3.org/2000/svg">
  <defs
     id="defs6" />
  <g
     id="g8"
     transform="matrix(1.3333333,0,0,-1.3333333,0,1122.6667)">
    <g
       id="g10"
       transform="translate(311.69361,-765.18298)">
      <path
         d="M 4.18391,812.03703 C 1.87296,812.03703 0,813.91002 0,816.22105 v 21.59504 C 0,840.12704 1.87296,842 4.18391,842 h 250.726 c 2.31006,0 4.18402,-1.87296 4.18402,-4.18391 v -21.59504 c 0,-2.31103 -1.87396,-4.18402 -4.18402,-4.18402 z"
         style="fill:#005b54;fill-opacity:1;fill-rule:nonzero;stroke:none"
         id="path12" />
    </g>
    <g
       id="g14"
       transform="translate(0,-26.35393)">
      <path
         d="M 0,788.67309 H 23.99596 V 842 H 0 Z"
         style="fill:#005b54;fill-opacity:1;fill-rule:nonzero;stroke:none"
         id="path16" />
    </g>
    <g
       id="g18"
       transform="translate(0.06999,-97.03491)">
      <path
         d="m 0,663.77205 h 23.99315 v 36.79299 H 0 Z m 0,44.16103 h 23.99315 v 36.79299 H 0 Z m 0,44.16095 h 23.99315 v 36.79299 H 0 Z m 0.06999,88.99205 H 594.85895 V 842 H 0.06999 Z"
         style="fill:#009b8c;fill-opacity:1;fill-rule:nonzero;stroke:none"
         id="path20" />
    </g>
    <g
       id="g22"
       transform="translate(316.07376,-170.43693)">
      <path
         d="m 3.26795,842 h 83.43802 c 1.80394,0 3.26702,-1.46392 3.26702,-3.26795 v -12.06196 c 0,-1.80306 -1.46308,-3.26701 -3.26702,-3.26701 H 3.26795 C 1.46392,823.40308 0,824.86703 0,826.67009 v 12.06196 C 0,840.53608 1.46392,842 3.26795,842 Z"
         style="fill:#00211e;fill-opacity:1;fill-rule:nonzero;stroke:none"
         id="path24" />
    </g>
    <g
       id="g26"
       transform="translate(315.70118,-147.42652)">
      <path
         d="m 75.96604,842 h 82.91401 c 1.89195,0 3.42796,-1.53598 3.42796,-3.42692 v -12.65502 c 0,-1.89198 -1.53601,-3.42703 -3.42796,-3.42703 H 75.96604 c -1.89298,0 -3.42802,1.53505 -3.42802,3.42703 v 12.65502 c 0,1.89094 1.53504,3.42692 3.42802,3.42692 z M 2.97196,840.70105 h 58.87298 c 1.64103,0 2.97195,-1.33103 2.97195,-2.97105 v -10.96894 c 0,-1.64001 -1.33092,-2.97105 -2.97195,-2.97105 H 2.97196 C 1.33092,823.79001 0,825.12105 0,826.76106 V 837.73 c 0,1.64002 1.33092,2.97105 2.97196,2.97105 z"
         style="fill:#009b8c;fill-opacity:1;fill-rule:nonzero;stroke:none"
         id="path28" />
    </g>
    <g
       id="g30"
       transform="translate(315.68321,-596.07266)">
      <path
         d="m 147.42014,818.81175 h 49.95403 c 1.641,0 2.97195,-1.33101 2.97195,-2.97102 v -12.79701 c 0,-1.63896 -1.33095,-2.96898 -2.97195,-2.96898 h -49.95403 c -1.64001,0 -2.97102,1.33002 -2.97102,2.96898 v 12.79701 c 0,1.64001 1.33101,2.97102 2.97102,2.97102 z m 0,-0.91401 h 49.95403 c 1.13598,0 2.05699,-0.92196 2.05699,-2.05701 v -12.79701 c 0,-1.13298 -0.92101,-2.05597 -2.05699,-2.05597 h -49.95403 c -1.13496,0 -2.05702,0.92299 -2.05702,2.05597 v 12.79701 c 0,1.13505 0.92206,2.05701 2.05702,2.05701 z m -50.74024,0.9129 h 40.44804 c 1.64103,0 2.97102,-1.33101 2.97102,-2.97102 V 803.0427 c 0,-1.63803 -1.32999,-2.96904 -2.97102,-2.96904 H 96.6799 c -1.63999,0 -2.97094,1.33101 -2.97094,2.96904 v 12.79692 c 0,1.64001 1.33095,2.97102 2.97094,2.97102 z m 0,-0.914 h 40.44804 c 1.13598,0 2.05804,-0.92197 2.05804,-2.05702 V 803.0427 c 0,-1.13307 -0.92206,-2.05503 -2.05804,-2.05503 H 96.6799 c -1.13496,0 -2.05693,0.92196 -2.05693,2.05503 v 12.79692 c 0,1.13505 0.92197,2.05702 2.05693,2.05702 z m -93.70896,0.91111 h 82.954 c 1.64001,0 2.97102,-1.33095 2.97102,-2.97198 v -12.79701 c 0,-1.63803 -1.33101,-2.96898 -2.97102,-2.96898 H 2.97094 C 1.33092,800.06978 0,801.40073 0,803.03876 v 12.79701 c 0,1.64103 1.33092,2.97198 2.97094,2.97198 z m 0,-0.91403 h 82.954 c 1.13505,0 2.056,-0.92197 2.056,-2.05795 v -12.79701 c 0,-1.13298 -0.92095,-2.05503 -2.056,-2.05503 h -82.954 c -1.13497,0 -2.05702,0.92205 -2.05702,2.05503 v 12.79701 c 0,1.13598 0.92205,2.05795 2.05702,2.05795 z m 146.58463,24.03904 h 63.676 c 2.14401,0 3.88701,-1.33101 3.88701,-2.97102 v -12.79701 c 0,-1.63794 -1.743,-2.96895 -3.88701,-2.96895 h -63.676 c -2.14504,0 -3.88701,1.33101 -3.88701,2.96895 v 12.79701 c 0,1.64001 1.74197,2.97102 3.88701,2.97102 z m 0,-0.914 h 63.676 c 1.48598,0 2.69102,-0.92197 2.69102,-2.05702 v -12.79701 c 0,-1.13298 -1.20504,-2.05494 -2.69102,-2.05494 h -63.676 c -1.48505,0 -2.69102,0.92196 -2.69102,2.05494 v 12.79701 c 0,1.13505 1.20597,2.05702 2.69102,2.05702 z M 89.57259,842 h 48.67495 c 1.63899,0 2.97102,-1.33092 2.97102,-2.97094 v -12.797 c 0,-1.63803 -1.33203,-2.96895 -2.97102,-2.96895 H 89.57259 c -1.64001,0 -2.97102,1.33092 -2.97102,2.96895 v 12.797 c 0,1.64002 1.33101,2.97094 2.97102,2.97094 z m 0,-0.91392 h 48.67495 c 1.13598,0 2.056,-0.92205 2.056,-2.05702 v -12.797 c 0,-1.13298 -0.92002,-2.05504 -2.056,-2.05504 H 89.57259 c -1.13505,0 -2.05702,0.92206 -2.05702,2.05504 v 12.797 c 0,1.13497 0.92197,2.05702 2.05702,2.05702 z M 46.27273,842 h 32.90703 c 1.64101,0 2.97196,-1.33092 2.97196,-2.97094 v -12.797 c 0,-1.63803 -1.33095,-2.96895 -2.97196,-2.96895 H 46.27273 c -1.63999,0 -2.97102,1.33092 -2.97102,2.96895 v 12.797 c 0,1.64002 1.33103,2.97094 2.97102,2.97094 z m 0,-0.91392 h 32.90703 c 1.13598,0 2.05801,-0.92205 2.05801,-2.05702 v -12.797 c 0,-1.13298 -0.92203,-2.05504 -2.05801,-2.05504 H 46.27273 c -1.13494,0 -2.05699,0.92206 -2.05699,2.05504 v 12.797 c 0,1.13497 0.92205,2.05702 2.05699,2.05702 z M 2.97281,842 h 32.90703 c 1.641,0 2.97204,-1.33092 2.97204,-2.97094 v -12.797 c 0,-1.63803 -1.33104,-2.96895 -2.97204,-2.96895 H 2.97281 c -1.63999,0 -2.97094,1.33092 -2.97094,2.96895 v 12.797 c 0,1.64002 1.33095,2.97094 2.97094,2.97094 z m 0,-0.91392 h 32.90703 c 1.13598,0 2.05801,-0.92205 2.05801,-2.05702 v -12.797 c 0,-1.13298 -0.92203,-2.05504 -2.05801,-2.05504 H 2.97281 c -1.13494,0 -2.05699,0.92206 -2.05699,2.05504 v 12.797 c 0,1.13497 0.92205,2.05702 2.05699,2.05702 z"
         style="fill:#b2b2b2;fill-opacity:1;fill-rule:nonzero;stroke:none"
         id="path32" />
    </g>
    <g
       id="g34"
       transform="translate(566.41819,-25.98202)">
      <path
         d="M 8.31614,841.83208 C 8.20417,841.93608 8.05416,842 7.88613,842 H 0.43016 c -0.166,0 -0.31601,-0.0639 -0.429,-0.16897 l 4.15701,-3.56298 z M 4.15794,837.64593 3.08092,838.58901 0,835.948 c 0.11197,-0.10403 0.26195,-0.169 0.42897,-0.169 h 7.45795 c 0.16605,0 0.31606,0.065 0.42605,0.169 l -3.07701,2.64101 z"
         style="fill:#00211e;fill-opacity:1;fill-rule:nonzero;stroke:none"
         id="path36" />
    </g>
    <g
       id="g38"
       transform="translate(566.22163,-26.52755)">
      <path
         d="m 0,842 v -5.16793 l 3.00691,2.55402 z"
         style="fill:#00211e;fill-opacity:1;fill-rule:nonzero;stroke:none"
         id="path40" />
    </g>
    <g
       id="g42"
       transform="translate(571.92472,-26.52732)">
      <path
         d="m 0,839.38649 3.00416,-2.55365 V 842 Z"
         style="fill:#00211e;fill-opacity:1;fill-rule:nonzero;stroke:none"
         id="path44" />
    </g>
    <g
       id="g46"
       transform="translate(566.86297,-41.34691)">
      <path
         d="m 0,818.78505 h 1.63298 v 4.91402 H 0 Z m 5.69534,14.507 c 0.19914,0.0168 0.35362,0.18278 0.35362,0.38458 v 7.93803 c 0,0.20574 -0.16049,0.37409 -0.36513,0.38534 H 1.74226 c -0.20291,-0.0113 -0.36431,-0.1796 -0.36431,-0.38534 v -7.93803 c 0,-0.2018 0.15534,-0.3678 0.35288,-0.38458 z m -1.97937,0.29064 c -0.3,0 -0.54205,0.24299 -0.54205,0.54198 0,0.29999 0.24205,0.54102 0.54205,0.54102 0.29897,0 0.54195,-0.24103 0.54195,-0.54102 0,-0.29899 -0.24298,-0.54198 -0.54195,-0.54198 z m -1.82002,7.413 h 3.636 v -6.02805 h -3.636 z"
         style="fill:#00211e;fill-opacity:1;fill-rule:nonzero;stroke:none"
         id="path48" />
    </g>
    <g
       id="g50"
       transform="translate(566.76637,-57.27841)">
      <path
         d="M 0.92392,842 C 0.36493,842 0,841.63308 0,841.15102 c 0,-0.47196 0.35391,-0.84897 0.90298,-0.84897 0.58093,0 0.93393,0.37701 0.93393,0.84897 C 1.82594,841.63308 1.48391,842 0.92392,842 Z"
         style="fill:#00211e;fill-opacity:1;fill-rule:nonzero;stroke:none"
         id="path52" />
    </g>
    <g
       id="g54"
       transform="translate(569.39984,-59.53195)">
      <path
         d="m 3.10595,842 c -0.86701,0 -1.25504,-0.47795 -1.47203,-0.81196 v 0.69702 H 0 c 0.02194,-0.46197 0,-4.91403 0,-4.91403 h 1.63392 v 2.74402 c 0,0.147 0.01205,0.29299 0.054,0.39804 0.11803,0.29392 0.38701,0.59794 0.83803,0.59794 0.59196,0 0.82701,-0.45094 0.82701,-1.11101 v -2.62899 h 1.63395 v 2.81803 C 4.98691,841.29806 4.1809,842 3.10595,842 Z"
         style="fill:#00211e;fill-opacity:1;fill-rule:nonzero;stroke:none"
         id="path56" />
    </g>
    <g
       id="g58"
       transform="translate(0,-331.49296)">
      <path
         d="m 0,597.85506 h 23.99596 v 25.40701 H 0 Z m 0,77.77103 H 23.99596 V 701.0331 H 0 Z m 0,35.34298 h 23.99596 v 25.40702 H 0 Z m 0,34.98701 H 23.99596 V 771.3631 H 0 Z m 0,35.40702 h 23.99596 v 25.40699 H 0 Z m 0,35.23 H 23.99596 V 842 L 0,842 Z"
         style="fill:#009b8c;fill-opacity:1;fill-rule:nonzero;stroke:none"
         id="path60" />
    </g>
    <g
       id="g62"
       transform="translate(464.68463,-773.33723)">
      <path
         d="m 29.22525,838.80632 c -10e-4,-0.45598 -0.363,-0.81598 -0.82102,-0.81598 -0.45598,0 -0.81598,0.35898 -0.81899,0.81598 -0.003,0.46102 0.36403,0.82794 0.82701,0.824 0.45402,-0.002 0.81496,-0.36802 0.813,-0.824 z m -4.48205,-5.89898 c -1.23497,0.003 -2.24093,1.02299 -2.24,2.27395 0,1.25101 1.01401,2.257 2.27308,2.257 1.24897,0 2.25598,-1.01599 2.25598,-2.27401 -0.001,-1.25498 -1.01702,-2.25796 -2.28906,-2.25694 z m 0.02307,5.76796 c -1.93606,0.002 -3.50308,-1.56702 -3.50101,-3.50495 0,-1.93105 1.56296,-3.49506 3.49401,-3.50003 1.93793,-0.004 3.51,1.56198 3.51093,3.50003 0.001,1.93793 -1.56495,3.50495 -3.50393,3.50495 z m 5.46299,-6.92702 c -0.18301,-1.19401 -0.97504,-1.93094 -2.17506,-2.06399 -1.10194,-0.12002 -6.02297,-0.18695 -7.04494,0.099 -0.97804,0.273 -1.537,0.94598 -1.69906,1.92898 -0.15599,0.94101 -0.19392,5.63896 -0.003,6.89502 0.18102,1.18301 0.97202,1.92095 2.16501,2.05395 1.21,0.13606 5.566,0.15103 6.72497,-0.027 1.18999,-0.18196 1.92906,-0.976 2.05906,-2.17795 0.123,-1.12101 0.15693,-5.50301 -0.02701,-6.70804 z m 1.25796,6.82503 c -0.09301,0.9 -0.43796,1.69498 -1.106,2.333 -0.70197,0.67102 -1.56197,0.96701 -2.50495,1.01701 -1.60503,0.0869 -5.41802,0.1429 -6.75606,-0.076 -1.53,-0.24906 -2.53395,-1.14307 -2.956,-2.65204 -0.32595,-1.16198 -0.26101,-6.52102 -0.07101,-7.66897 0.25906,-1.57101 1.18803,-2.57802 2.74505,-2.98102 1.07699,-0.27598 6.37299,-0.24103 7.56195,-0.049 1.57204,0.25402 2.58299,1.17797 2.99103,2.73104 0.31298,1.19393 0.20401,6.26999 0.09599,7.34596 z m -25.91723,1.03017 c 0.41392,0.014 0.82795,0.003 1.24393,0.004 h 0.17102 v 2.15504 c -0.22196,0.023 -0.45196,0.054 -0.68503,0.0649 -0.42497,0.019 -0.85096,0.041 -1.27695,0.031 -0.64905,-0.013 -1.26297,-0.17101 -1.8,-0.55701 -0.61605,-0.44299 -0.954,-1.06503 -1.08204,-1.79897 -0.05496,-0.30402 -0.06794,-0.61702 -0.07495,-0.92503 -0.01301,-0.48402 -0.003,-0.96798 -0.003,-1.45197 v -0.18105 H 0 v -2.40803 h 2.05092 v -6.05194 h 2.506 v 6.04197 h 2.04401 c 0.10505,0.80101 0.20701,1.594 0.31504,2.41905 H 6.45596 c -0.58102,-10e-4 -1.91503,0 -1.91503,0 0,0 0.00598,1.19401 0.01999,1.71196 0.02001,0.70897 0.44104,0.92503 1.00907,0.94598 z"
         style="fill:#ffffff;fill-opacity:1;fill-rule:nonzero;stroke:none"
         id="path64" />
    </g>
    <g
       id="g66"
       transform="translate(311.45706,-666.56543)">
      <path
         d="M 249.9169,842 H 9.64896 C 4.31991,842 0,835.82402 0,828.20608 v -59.87503 c 0,-7.61797 4.31991,-13.79404 9.64896,-13.79404 H 249.9169 c 5.33002,0 9.65002,6.17607 9.65002,13.79404 v 59.87503 c 0,7.61794 -4.32,13.79392 -9.65002,13.79392 z"
         style="fill:#005b54;fill-opacity:1;fill-rule:nonzero;stroke:none"
         id="path68" />
    </g>
    <g
       id="g70"
       transform="matrix(1e-5,0.99999,-0.99999,1e-5,1307.7995,55.21824)">
      <path
         d="M 3.39752,840.14231 C 3.37666,839.44057 3.3558,838.79742 3.33502,838.21263 3.32461,837.6279 3.30894,837.04317 3.28816,836.45847 H 3.19439 c -0.0104,0.35084 -0.02608,0.70163 -0.04686,1.0525 -0.01048,0.4678 -0.02607,0.9356 -0.04694,1.40338 -0.01037,0.58473 -0.02596,1.16946 -0.04683,1.75416 C 3.04517,841.15238 3.0365,841.59623 3.02791,842 h 0.12813 c 0.00473,-0.18329 0.00708,-0.39328 0.00708,-0.62983 0.01041,-0.35079 0.02087,-0.76014 0.03127,-1.22786 0.01038,-0.35087 0.02086,-0.70174 0.03124,-1.05253 0.0104,-0.35087 0.0208,-0.70171 0.03126,-1.0525 0.01041,0.35079 0.0156,0.70163 0.0156,1.0525 0.0104,0.46772 0.02086,0.8771 0.03126,1.22789 0.0104,0.35084 0.02086,0.70171 0.03127,1.0525 0.007,0.23655 0.01165,0.44654 0.01392,0.62983 h 0.10394 c 0.00474,-0.18329 0.00709,-0.39328 0.00709,-0.62983 0.01049,-0.35079 0.02086,-0.70166 0.03126,-1.0525 0.01046,-0.35079 0.02087,-0.76017 0.03127,-1.22789 0.01038,-0.35087 0.01565,-0.70171 0.01565,-1.0525 0.0104,0.35079 0.0208,0.70163 0.03118,1.0525 0.01049,0.35079 0.02089,0.70166 0.03127,1.05253 0.01048,0.46772 0.01567,0.87707 0.01567,1.22786 0.007,0.23655 0.014,0.44654 0.02103,0.62983 H 3.76668 C 3.7565,841.59623 3.74289,841.15238 3.72563,840.66851 3.71526,840.08381 3.69958,839.49908 3.6788,838.91435 3.66831,838.44657 3.65272,837.97877 3.63186,837.51097 3.62146,837.1601 3.61108,836.80931 3.6006,836.45847 H 3.50691 c -0.02086,0.5847 -0.04167,1.16943 -0.06253,1.75416 -0.02087,0.58479 -0.03646,1.22794 -0.04686,1.92968 z m -0.4648,0 C 2.91186,839.44057 2.891,838.79742 2.87022,838.21263 2.85982,837.6279 2.84414,837.04317 2.82328,836.45847 H 2.72959 c -0.0104,0.35084 -0.02608,0.70163 -0.04685,1.0525 -0.01049,0.4678 -0.02608,0.9356 -0.04694,1.40338 -0.01038,0.58473 -0.02597,1.16946 -0.04686,1.75416 C 2.58029,841.15238 2.5717,841.59623 2.56306,842 h 0.12818 c 0.00471,-0.18329 0.00709,-0.39328 0.00709,-0.62983 0.01037,-0.35079 0.02086,-0.76014 0.03126,-1.22786 0.01038,-0.35087 0.02078,-0.70174 0.03124,-1.05253 0.0104,-0.35087 0.02081,-0.70171 0.03127,-1.0525 0.0104,0.35079 0.01559,0.70163 0.01559,1.0525 0.0104,0.46772 0.02086,0.8771 0.03126,1.22789 0.01041,0.35084 0.02087,0.70171 0.03127,1.0525 0.007,0.23655 0.01165,0.44654 0.01392,0.62983 h 0.10395 c 0.00473,-0.18329 0.00708,-0.39328 0.00708,-0.62983 0.01046,-0.35079 0.02086,-0.70166 0.03127,-1.0525 0.01037,-0.35079 0.02086,-0.76017 0.03124,-1.22789 0.0104,-0.35087 0.01559,-0.70171 0.01559,-1.0525 0.01048,0.35079 0.02089,0.70163 0.03126,1.0525 0.01049,0.35079 0.02087,0.70166 0.03127,1.05253 0.01046,0.46772 0.01567,0.87707 0.01567,1.22786 0.00701,0.23655 0.01401,0.44654 0.02101,0.62983 h 0.12937 c -0.01015,-0.40377 -0.02378,-0.84762 -0.04102,-1.33149 -0.01046,-0.5847 -0.02605,-1.16943 -0.04691,-1.75416 -0.0104,-0.46778 -0.02599,-0.93558 -0.04686,-1.40338 -0.0104,-0.35087 -0.0208,-0.70166 -0.03126,-1.0525 H 3.04209 c -0.02087,0.5847 -0.04173,1.16943 -0.06251,1.75416 -0.02086,0.58479 -0.03645,1.22794 -0.04686,1.92968 z m -0.46386,0 C 2.448,839.44057 2.42722,838.79742 2.40636,838.21263 2.39596,837.6279 2.38037,837.04317 2.3595,836.45847 H 2.26573 c -0.0104,0.35084 -0.02599,0.70163 -0.04685,1.0525 -0.01041,0.4678 -0.02605,0.9356 -0.04686,1.40338 -0.01046,0.58473 -0.02605,1.16946 -0.04691,1.75416 C 2.11652,841.15238 2.10784,841.59623 2.09928,842 h 0.1281 c 0.00473,-0.18329 0.00709,-0.39328 0.00709,-0.62983 0.01046,-0.35079 0.02086,-0.76014 0.03126,-1.22786 0.01046,-0.35087 0.02087,-0.70174 0.03124,-1.05253 0.01049,-0.35087 0.02089,-0.70171 0.03127,-1.0525 0.0104,0.35079 0.01567,0.70163 0.01567,1.0525 0.0104,0.46772 0.02078,0.8771 0.03118,1.22789 0.01046,0.35084 0.02087,0.70171 0.03127,1.0525 0.007,0.23655 0.01173,0.44654 0.014,0.62983 h 0.10395 c 0.00473,-0.18329 0.00709,-0.39328 0.00709,-0.62983 0.0104,-0.35079 0.02077,-0.70166 0.03126,-1.0525 0.01038,-0.35079 0.02078,-0.76017 0.03124,-1.22789 0.0104,-0.35087 0.01559,-0.70171 0.01559,-1.0525 0.0104,0.35079 0.02089,0.70163 0.03127,1.0525 0.0104,0.35079 0.0208,0.70166 0.03126,1.05253 0.01041,0.46772 0.01559,0.87707 0.01559,1.22786 0.007,0.23655 0.01409,0.44654 0.02109,0.62983 H 2.83802 C 2.82793,841.59623 2.81424,841.15238 2.79697,840.66851 2.7866,840.08381 2.77101,839.49908 2.75014,838.91435 2.73974,838.44657 2.72407,837.97877 2.70329,837.51097 2.6928,837.1601 2.68243,836.80931 2.67202,836.45847 H 2.57825 c -0.0208,0.5847 -0.04167,1.16943 -0.06253,1.75416 -0.02078,0.58479 -0.03645,1.22794 -0.04686,1.92968 z M 1.81919,835.11703 2.03675,842 H 2.1617 l -0.21747,-6.88297 z m -0.25197,0 L 1.78478,842 h 0.12503 l -0.21755,-6.88297 z m 0.06182,6.25314 c 0,-0.23386 -0.0104,-0.4678 -0.03118,-0.70166 -0.01049,-0.11693 -0.02608,-0.17541 -0.04694,-0.17541 -0.03127,0 -0.05723,0.0585 -0.07809,0.17541 -0.01041,0.23386 -0.0156,0.4678 -0.0156,0.70166 0,0.23394 0.00519,0.40938 0.0156,0.52631 0.00337,0.0376 0.00683,0.072 0.01046,0.10352 h 0.10913 c 0.0019,-0.0315 0.00371,-0.066 0.00544,-0.10352 0.02078,-0.11693 0.03118,-0.29237 0.03118,-0.52631 z m 0,-4.21007 c 0,-0.23386 -0.0104,-0.46772 -0.03118,-0.70163 -0.01049,-0.11693 -0.02608,-0.17544 -0.04694,-0.17544 -0.03127,0 -0.05723,0.0585 -0.07809,0.17544 -0.01041,0.23391 -0.0156,0.46777 -0.0156,0.70163 0,0.23394 0.00519,0.40938 0.0156,0.52631 0.02086,0.23385 0.04682,0.35087 0.07809,0.35087 0.02086,0 0.03645,-0.11702 0.04694,-0.35087 0.02078,-0.11693 0.03118,-0.29237 0.03118,-0.52631 z m -0.29197,0.35087 c 0.03127,0 0.05205,0 0.06251,0 0.0208,0.11693 0.03126,0.29237 0.03126,0.52631 0,0.11693 -0.01046,0.23386 -0.03126,0.35079 -0.01046,0.23391 -0.03124,0.40935 -0.06251,0.52628 -0.02086,0.11693 -0.04167,0.17543 -0.06253,0.17543 -0.02078,0.11693 -0.03645,0.23386 -0.04685,0.35079 -0.01038,0.23394 -0.02087,0.40938 -0.03124,0.52631 -0.01041,0.23386 -0.01559,0.46777 -0.01559,0.70163 0,0.58473 0.01559,0.99403 0.04683,1.22797 0.00433,0.0364 0.00875,0.071 0.01332,0.10352 h 0.28037 l -0.01241,-0.98062 c -0.01049,0.11693 -0.02608,0.17544 -0.04694,0.17544 -0.02078,0.11693 -0.04686,0.17535 -0.0781,0.17535 -0.02081,0 -0.04167,-0.0584 -0.06245,-0.17535 -0.01048,-0.11702 -0.01567,-0.23394 -0.01567,-0.35087 0,-0.11693 0,-0.23392 0,-0.35085 0,0 0.00519,-0.0584 0.01567,-0.17543 0.01038,0 0.02078,-0.0584 0.03118,-0.17536 0.01046,-0.11701 0.02605,-0.17543 0.04692,-0.17543 0.0208,-0.11693 0.04167,-0.23394 0.06245,-0.35087 0.02086,-0.11693 0.03645,-0.29237 0.04694,-0.52623 0.02077,-0.11701 0.03123,-0.29236 0.03123,-0.52631 0.01041,-0.1169 0.0156,-0.29233 0.0156,-0.52619 0,-0.58473 -0.02078,-1.05253 -0.06251,-1.40341 -0.03126,-0.23385 -0.08331,-0.35084 -0.15622,-0.35084 -0.04167,0 -0.07812,0.0585 -0.10938,0.17544 -0.03124,0.11693 -0.05211,0.1754 -0.06251,0.1754 l 0.03127,1.22797 c 0.01037,-0.11693 0.02605,-0.23394 0.04683,-0.35087 0.03126,0 0.06253,0 0.09379,0 z m -0.13765,1.9296 c 0,0.58473 -0.01567,1.05253 -0.04685,1.40338 -0.02087,0.35087 -0.05732,0.52622 -0.10936,0.52622 -0.01046,0 -0.02087,-0.0584 -0.03127,-0.17535 -0.01046,0 -0.02086,0 -0.03124,0 v -3.33298 c 0.01038,-0.11693 0.02078,-0.23394 0.03124,-0.35087 0.02081,0 0.04167,0 0.06245,0 0.04172,0 0.0729,0.17544 0.09377,0.52631 0.02089,0.35079 0.03126,0.81856 0.03126,1.40329 z m 0.12498,0 c 0,-0.4678 -0.00521,-0.93552 -0.01559,-1.40329 -0.0104,-0.35087 -0.02608,-0.64324 -0.04685,-0.87718 -0.02087,-0.23386 -0.04695,-0.46772 -0.07821,-0.70163 -0.02078,-0.11693 -0.05205,-0.17544 -0.09369,-0.17544 -0.02086,0 -0.04167,0.0585 -0.06253,0.17544 -0.02086,0 -0.03645,0.0585 -0.04683,0.1754 v -1.51684 H 0.85564 V 842 h 0.3537 c 0.01372,-0.11942 0.02608,-0.27094 0.03694,-0.45439 0.03127,-0.23386 0.05213,-0.52623 0.06253,-0.8771 0.01038,-0.35084 0.01559,-0.76014 0.01559,-1.22794 z M 0.89864,842 v -0.80518 H 0.71116 v -2.45591 c 0,-0.46777 0.00521,-0.81865 0.01567,-1.0525 0.02078,-0.11693 0.04686,-0.17544 0.07812,-0.17544 0.02078,0 0.03646,0 0.04683,0 0.02087,0.11693 0.03646,0.17544 0.04686,0.17544 l 0.03127,-1.05254 c -0.02078,-0.11693 -0.04167,-0.1754 -0.06245,-0.1754 -0.02086,-0.11693 -0.04692,-0.17544 -0.07818,-0.17544 -0.04167,0 -0.07291,0.0585 -0.09371,0.17544 -0.02087,0.11693 -0.04165,0.29233 -0.06251,0.52628 -0.0104,0.23385 -0.02086,0.4678 -0.03126,0.70166 0,0.35087 0,0.70166 0,1.0525 V 842 m 0.29684,0 z m -0.25308,0 v -0.80518 H 0.45811 v -2.45591 c 0,-0.46777 0.00518,-0.81865 0.01559,-1.0525 0.02086,-0.11693 0.04683,-0.17544 0.07809,-0.17544 0.02087,0 0.03646,0 0.04694,0 0.02078,0.11693 0.03646,0.17544 0.04683,0.17544 l 0.03127,-1.05254 c -0.02086,-0.11693 -0.04164,-0.1754 -0.06251,-0.1754 -0.0208,-0.11693 -0.04685,-0.17544 -0.07812,-0.17544 -0.04164,0 -0.07291,0.0585 -0.09377,0.17544 -0.0208,0.11693 -0.04167,0.29233 -0.06245,0.52628 -0.01046,0.23385 -0.02086,0.4678 -0.03126,0.70166 0,0.35087 0,0.70166 0,1.0525 V 842 m 0.29684,0 z M 0,836.45847 V 842 h 0.35943 c 0.01143,-0.0812 0.0218,-0.17425 0.0311,-0.27896 0.02086,-0.23386 0.03127,-0.52622 0.03127,-0.87709 0.01046,-0.35085 0.01567,-0.70164 0.01567,-1.05251 v -3.33297 H 0.31243 v 3.15754 c 0,0.23394 -0.00521,0.4678 -0.01559,0.70166 0,0.23391 -0.00521,0.40935 -0.01567,0.52628 0,0.11693 -0.0104,0.23385 -0.03127,0.35087 -0.0104,0.11693 -0.02599,0.17535 -0.04685,0.17535 -0.01038,0 -0.02605,-0.0584 -0.04683,-0.17535 -0.02089,0 -0.03127,0 -0.03127,0 v -4.73635 z"
         style="fill:#606060;fill-opacity:1;fill-rule:nonzero;stroke:none"
         id="path72" />
    </g>
    <g
       id="g74"
       transform="matrix(1e-5,0.99999,-0.99999,1e-5,1311.7623,58.73587)">
      <path
         d="m 0.17181,841.12293 c 0,-0.23386 -0.01041,-0.4678 -0.03127,-0.70166 -0.0104,-0.11693 -0.02599,-0.17543 -0.04685,-0.17543 -0.03127,0 -0.05724,0.0585 -0.07813,0.17543 C 0.00519,840.65513 0,840.88907 0,841.12293 c 0,0.23395 0.00519,0.40938 0.01556,0.52631 C 0.03645,841.8831 0.06242,842 0.09369,842 c 0.02086,0 0.03645,-0.1169 0.04685,-0.35076 0.02086,-0.11693 0.03127,-0.29236 0.03127,-0.52631 z"
         style="fill:#606060;fill-opacity:1;fill-rule:nonzero;stroke:none"
         id="path76" />
    </g>
    <g
       id="g78"
       transform="matrix(1e-5,0.99999,-0.99999,1e-5,1307.7995,58.93222)">
      <path
         d="m 0.31243,842 v -0.80518 H 0.12495 v -4.73638 H 0 V 842 Z"
         style="fill:#606060;fill-opacity:1;fill-rule:nonzero;stroke:none"
         id="path80" />
    </g>
    <g
       id="g82"
       transform="matrix(1e-5,0.99999,-0.99999,1e-5,1307.7996,59.14304)">
      <path
         d="m 2.17692,839.96688 c 0.01038,0.23386 0.02087,0.40926 0.03124,0.52619 0.02089,0.23395 0.04167,0.46781 0.06253,0.70175 0.02078,0.23386 0.03646,0.40929 0.04686,0.52622 0.00935,0.10471 0.01763,0.19772 0.02489,0.27896 h 0.14062 c -0.02607,-0.29188 -0.05513,-0.61872 -0.08742,-0.98062 -0.04164,-0.4678 -0.07809,-0.87709 -0.10936,-1.22794 0.02087,-0.23394 0.04164,-0.52631 0.06254,-0.87709 0.02086,-0.23395 0.04164,-0.52631 0.0625,-0.87707 0.02081,-0.23394 0.03645,-0.52631 0.04686,-0.87718 0.02086,-0.23386 0.04164,-0.46772 0.06253,-0.70166 H 2.38005 c -0.02086,0.23394 -0.04164,0.4678 -0.0625,0.70166 -0.0104,0.23394 -0.02608,0.4678 -0.04686,0.70174 -0.01046,0.23386 -0.02605,0.46778 -0.04691,0.70163 -0.02081,0.23395 -0.03648,0.4093 -0.04686,0.52631 v -2.63134 H 2.05194 V 842 h 0.12498 z m -0.01434,-0.52631 c 0,-0.4678 -0.00519,-0.93552 -0.01559,-1.40329 C 2.13653,837.68641 2.12094,837.39404 2.10008,837.1601 2.07927,836.92624 2.05322,836.69238 2.02195,836.45844 1.99069,836.34151 1.95423,836.283 1.91259,836.283 c -0.03126,0 -0.06253,0.0585 -0.0938,0.17544 -0.03118,0.23394 -0.06242,0.4678 -0.09368,0.70166 -0.02086,0.23394 -0.03645,0.52631 -0.04686,0.87718 -0.01046,0.46777 -0.01567,0.93549 -0.01567,1.40329 0,0.4678 0.00521,0.8771 0.01567,1.22794 0.01041,0.35087 0.026,0.64324 0.04686,0.8771 0.0163,0.18345 0.03268,0.33497 0.04898,0.45439 h 0.28905 c 0.01378,-0.11942 0.02605,-0.27094 0.03694,-0.45439 0.02086,-0.23386 0.03645,-0.52623 0.04691,-0.8771 0.0104,-0.35084 0.01559,-0.76014 0.01559,-1.22794 z m -0.12495,0 c 0,0.58473 -0.01049,1.0525 -0.03127,1.40338 -0.02086,0.35087 -0.05213,0.52622 -0.09377,0.52622 -0.04167,0 -0.07293,-0.17535 -0.0938,-0.52622 -0.02077,-0.35088 -0.03118,-0.81865 -0.03118,-1.40338 0,-0.58473 0.01041,-1.05253 0.03118,-1.40329 0.02087,-0.35087 0.05213,-0.52631 0.0938,-0.52631 0.04164,0 0.07291,0.17544 0.09377,0.52631 0.02078,0.35076 0.03127,0.81856 0.03127,1.40329 z m -0.23315,0 c 0,-0.4678 -0.00522,-0.93552 -0.01559,-1.40329 -0.0104,-0.35087 -0.02608,-0.64324 -0.04686,-0.87718 -0.02086,-0.23386 -0.04691,-0.46772 -0.07818,-0.70166 -0.03118,-0.11693 -0.06763,-0.17544 -0.10939,-0.17544 -0.03118,0 -0.06242,0.0585 -0.09368,0.17544 -0.03127,0.23394 -0.06253,0.4678 -0.0938,0.70166 -0.02078,0.23394 -0.03645,0.52631 -0.04683,0.87718 -0.0104,0.46777 -0.01567,0.93549 -0.01567,1.40329 0,0.4678 0.00527,0.8771 0.01567,1.22794 0.01038,0.35087 0.02605,0.64324 0.04683,0.8771 0.01638,0.18345 0.03268,0.33497 0.04907,0.45439 h 0.28896 c 0.01381,-0.11942 0.02608,-0.27094 0.03702,-0.45439 0.02078,-0.23386 0.03646,-0.52623 0.04686,-0.8771 0.01037,-0.35084 0.01559,-0.76014 0.01559,-1.22794 z m -0.12498,0 c 0,0.58473 -0.01038,1.0525 -0.03124,1.40338 -0.02086,0.35087 -0.05204,0.52622 -0.0938,0.52622 -0.04164,0 -0.0729,-0.17535 -0.09368,-0.52622 -0.02087,-0.35088 -0.03127,-0.81865 -0.03127,-1.40338 0,-0.58473 0.0104,-1.05253 0.03127,-1.40329 0.02078,-0.35087 0.05204,-0.52631 0.09368,-0.52631 0.04176,0 0.07294,0.17544 0.0938,0.52631 0.02086,0.35076 0.03124,0.81856 0.03124,1.40329 z m -0.35637,0 c 0,0.58473 -0.01046,1.0525 -0.03124,1.40338 -0.02089,0.35087 -0.05213,0.52622 -0.0938,0.52622 -0.02078,0 -0.04164,-0.0584 -0.0625,-0.17535 -0.01041,-0.11702 -0.02081,-0.17544 -0.03118,-0.17544 v -3.50841 c 0.01037,0 0.02077,0 0.03118,0 0.01046,0 0.02605,0 0.04691,0 0.04167,0 0.07291,0.17544 0.09371,0.52631 0.03127,0.35076 0.04692,0.81856 0.04692,1.40329 z m 0.12498,0 c 0,-0.4678 -0.00522,-0.93552 -0.01559,-1.40329 C 1.42203,837.68641 1.40125,837.39404 1.36998,837.1601 1.34912,836.92624 1.32313,836.69238 1.29189,836.45844 1.26062,836.34151 1.22417,836.283 1.1825,836.283 c -0.04164,0 -0.08337,0.0585 -0.12504,0.17544 -0.03126,0 -0.05723,0.0585 -0.07809,0.17543 V 842 h 0.36927 c 0.01378,-0.11942 0.02608,-0.27094 0.03693,-0.45439 0.02087,-0.23386 0.03646,-0.52623 0.04695,-0.8771 0.01037,-0.35084 0.01559,-0.76014 0.01559,-1.22794 z m -0.84277,0 c 0,0.4678 0.00519,0.8771 0.01567,1.22794 0.02078,0.4678 0.04165,0.81867 0.06251,1.05253 0.0093,0.10471 0.0197,0.19772 0.03112,0.27896 h 0.27284 c 0.00912,-0.0812 0.01715,-0.17425 0.02415,-0.27896 0.04167,-0.4678 0.06245,-1.22797 0.06245,-2.28047 0,0 0,-0.0584 0,-0.17544 0,-0.11693 0,-0.23385 0,-0.35078 H 0.73037 c 0,-0.46781 0.01041,-0.81865 0.03127,-1.05251 0.03127,-0.23394 0.07291,-0.35087 0.12495,-0.35087 0.03127,0 0.05732,0 0.07812,0 0.03127,0.11693 0.05213,0.17544 0.06251,0.17544 l 0.01567,-1.05254 c -0.01046,0 -0.02086,-0.0585 -0.03126,-0.17543 -0.01046,0 -0.02605,0 -0.04692,0 -0.0104,0 -0.02599,0 -0.04685,0 C 0.90746,836.34151 0.89181,836.283 0.871,836.283 c -0.04164,0 -0.08337,0.0585 -0.12503,0.17544 -0.03127,0.23394 -0.05724,0.4678 -0.0781,0.70166 -0.02089,0.23394 -0.03648,0.52631 -0.04686,0.87718 -0.01048,0.46777 -0.01567,0.93549 -0.01567,1.40329 z m 0.35937,0.52631 c 0,0.23386 -0.00518,0.40926 -0.01559,0.52619 0,0.23395 -0.00521,0.4093 -0.01559,0.52631 -0.01048,0.11693 -0.02607,0.17544 -0.04694,0.17544 -0.01037,0.11693 -0.02078,0.17535 -0.03126,0.17535 -0.02078,0 -0.04164,-0.0584 -0.06242,-0.17535 -0.01049,-0.11702 -0.02087,-0.23394 -0.03127,-0.35087 -0.01049,-0.11693 -0.02086,-0.23395 -0.03127,-0.35088 0,-0.11693 0,-0.29233 0,-0.52619 z m -0.64354,-0.52631 c 0,0.35087 0.00518,0.70172 0.01567,1.0525 0.0104,0.46781 0.02599,0.81868 0.04686,1.05254 C 0.4,841.72906 0.41635,841.88058 0.43265,842 m 0.28851,0 -0.02494,-0.98062 c -0.01049,0.11693 -0.02608,0.17544 -0.04694,0.17544 -0.02078,0.11693 -0.04165,0.17535 -0.06245,0.17535 -0.04173,0 -0.07818,-0.17535 -0.10945,-0.52622 -0.02078,-0.35088 -0.03118,-0.81865 -0.03118,-1.40338 0,-0.58473 0.0104,-1.05253 0.03118,-1.40329 0.02087,-0.35087 0.06253,-0.52631 0.12504,-0.52631 0.02086,0 0.04167,0 0.06253,0 0.02078,0.11693 0.03645,0.17544 0.04686,0.17544 L 0.7274,836.63387 C 0.717,836.51694 0.69622,836.45844 0.66495,836.45844 0.64409,836.34151 0.61801,836.283 0.58683,836.283 c -0.04173,0 -0.08337,0.0585 -0.12504,0.17544 -0.03126,0.23394 -0.05731,0.4678 -0.07809,0.70166 -0.02087,0.23394 -0.03646,0.52631 -0.04686,0.87718 -0.01049,0.46777 -0.01567,0.93549 -0.01567,1.40329 M 0.72116,842 Z m -0.50244,-4.66447 c 0.03118,0 0.05726,0.0585 0.07812,0.17544 v 1.40338 c 0,0.11693 -0.0104,0.17543 -0.03126,0.17543 -0.01041,0 -0.02087,0 -0.03127,0 -0.02086,0 -0.03645,0 -0.04685,0 -0.01046,0 -0.02087,-0.0585 -0.03124,-0.17543 -0.01041,0 -0.02089,-0.0585 -0.03127,-0.17544 -0.0104,-0.11693 -0.01559,-0.29237 -0.01559,-0.52628 0,-0.23386 0.0104,-0.46772 0.03118,-0.70166 0.02086,-0.11693 0.04692,-0.17544 0.07818,-0.17544 z M 0.33905,842 c 0.00887,-0.0812 0.01559,-0.17425 0.0203,-0.27896 0.0208,-0.11693 0.03645,-0.35087 0.04685,-0.70166 0.01041,-0.23394 0.0156,-0.52631 0.0156,-0.87709 v -3.50842 C 0.40102,836.51694 0.36975,836.45844 0.32811,836.45844 0.29684,836.34151 0.25517,836.283 0.20305,836.283 c -0.03124,0 -0.06251,0.0585 -0.09369,0.17544 -0.02086,0 -0.04173,0.0585 -0.06253,0.17543 -0.01038,0.23386 -0.02086,0.46781 -0.03124,0.70166 C 0.00519,837.56948 0,837.86184 0,838.21263 c 0,0.35084 0.00519,0.64321 0.01559,0.87715 0.01038,0.23386 0.02605,0.4093 0.04683,0.52623 0.02086,0.11693 0.04167,0.23394 0.06253,0.35087 0.03127,0.11693 0.05732,0.17541 0.0781,0.17541 0.02089,0 0.03648,-0.0585 0.04685,-0.17541 0.02087,0 0.03654,0 0.04694,0 v 0.17541 c 0,0.11693 0,0.23385 0,0.35078 0,0.23395 -0.00521,0.4093 -0.01567,0.52631 -0.0104,0.11693 -0.026,0.17544 -0.04686,0.17544 -0.01037,0.11693 -0.02605,0.17535 -0.04685,0.17535 -0.02087,0 -0.04692,-0.0584 -0.0781,-0.17535 -0.02086,0 -0.03645,-0.0585 -0.04694,-0.17544 L 0.04997,842 m 0.28908,0 z"
         style="fill:#606060;fill-opacity:1;fill-rule:nonzero;stroke:none"
         id="path84" />
    </g>
    <g
       id="g86"
       transform="matrix(1e-5,0.99999,-0.99999,1e-5,1311.7623,61.49384)">
      <path
         d="m 0.17181,841.12293 c 0,-0.23386 -0.01041,-0.4678 -0.03127,-0.70166 -0.0104,-0.11693 -0.02599,-0.17543 -0.04685,-0.17543 -0.03127,0 -0.05724,0.0585 -0.07813,0.17543 C 0.00519,840.65513 0,840.88907 0,841.12293 c 0,0.23395 0.00519,0.40938 0.01556,0.52631 C 0.03645,841.8831 0.06242,842 0.09369,842 c 0.02086,0 0.03645,-0.1169 0.04685,-0.35076 0.02086,-0.11693 0.03127,-0.29236 0.03127,-0.52631 z"
         style="fill:#606060;fill-opacity:1;fill-rule:nonzero;stroke:none"
         id="path88" />
    </g>
    <g
       id="g90"
       transform="matrix(1e-5,0.99999,-0.99999,1e-5,1307.7995,61.65884)">
      <path
         d="M 5.06974,840.14231 C 5.04896,839.44057 5.02809,838.79742 5.00732,838.21263 4.99683,837.6279 4.98124,837.04317 4.96037,836.45847 H 4.86666 c -0.01046,0.35084 -0.02605,0.70163 -0.04691,1.0525 -0.01041,0.4678 -0.026,0.9356 -0.04686,1.40338 -0.0104,0.58473 -0.02605,1.16946 -0.04686,1.75416 C 4.71739,841.15238 4.7088,841.59623 4.70013,842 h 0.12821 c 0.0047,-0.18329 0.00708,-0.39328 0.00708,-0.62983 0.01038,-0.35079 0.02078,-0.76014 0.03124,-1.22786 0.0104,-0.35087 0.02081,-0.70174 0.03127,-1.05253 0.0104,-0.35087 0.0208,-0.70171 0.03118,-1.0525 0.01049,0.35079 0.01567,0.70163 0.01567,1.0525 0.01041,0.46772 0.02078,0.8771 0.03127,1.22789 0.01038,0.35084 0.02078,0.70171 0.03127,1.0525 0.007,0.23655 0.01165,0.44654 0.01391,0.62983 h 0.10395 c 0.00473,-0.18329 0.00709,-0.39328 0.00709,-0.62983 0.0104,-0.35079 0.02086,-0.70166 0.03126,-1.0525 0.01038,-0.35079 0.02087,-0.76017 0.03124,-1.22789 0.0104,-0.35087 0.01559,-0.70171 0.01559,-1.0525 0.01049,0.35079 0.02089,0.70163 0.03127,1.0525 0.0104,0.35079 0.02086,0.70166 0.03126,1.05253 0.01041,0.46772 0.0156,0.87707 0.0156,1.22786 0.00708,0.23655 0.01408,0.44654 0.02108,0.62983 H 5.43889 C 5.4288,841.59623 5.41511,841.15238 5.39793,840.66851 5.38747,840.08381 5.37188,839.49908 5.35102,838.91435 5.34061,838.44657 5.32494,837.97877 5.30416,837.51097 5.29376,837.1601 5.2833,836.80931 5.27289,836.45847 H 5.17912 c -0.0208,0.5847 -0.04166,1.16943 -0.06244,1.75416 -0.02087,0.58479 -0.03646,1.22794 -0.04694,1.92968 z m -0.62023,-2.4559 c 0.01046,0 0.02087,0 0.03127,0 0.01046,0 0.02605,0 0.04691,0 0.08331,0 0.14585,0.23385 0.18749,0.70166 0.04164,0.46777 0.06253,1.11101 0.06253,1.9296 0,0.68683 -0.01128,1.24761 -0.0337,1.68233 h -0.2945 z m 0.46874,2.63126 c 0,-0.70166 -0.0104,-1.28639 -0.03118,-1.7542 -0.02086,-0.46777 -0.04694,-0.87706 -0.07818,-1.22794 -0.03118,-0.35078 -0.07293,-0.64315 -0.12498,-0.87706 -0.05213,-0.11693 -0.10417,-0.17544 -0.15622,-0.17544 -0.03126,0 -0.06772,0.0585 -0.10944,0.17544 -0.03118,0 -0.06245,0.0585 -0.09371,0.1754 V 842 h 0.56559 c 0.01874,-0.45533 0.02812,-1.01614 0.02812,-1.68233 z M 4.3566,842 c -0.02985,-0.34194 -0.06418,-0.78582 -0.10307,-1.33149 -0.03127,-0.46777 -0.06253,-0.994 -0.09377,-1.57873 -0.03118,-0.4678 -0.05726,-0.93557 -0.07813,-1.40337 h 0.35938 v -1.22794 H 3.92542 v 0.87706 c 0.0104,0.23395 0.02605,0.52631 0.04685,0.8771 0.02087,0.35084 0.03646,0.70172 0.04692,1.0525 0.0208,0.35088 0.04167,0.70175 0.06244,1.05254 0.03127,0.35084 0.05732,0.64321 0.07813,0.87715 0.01596,0.26841 0.03189,0.53685 0.04785,0.80518 z m -0.32378,-5.54153 c -0.01049,0.35084 -0.02086,0.64321 -0.03126,0.87706 -0.01041,0.35088 -0.02087,0.64324 -0.03127,0.8771 H 3.67345 c -0.01046,-0.23386 -0.02087,-0.52622 -0.03127,-0.8771 0,-0.23385 -0.00519,-0.52622 -0.01568,-0.87706 H 3.48588 c 0.03126,0.81864 0.05734,1.57881 0.07821,2.28044 0.02077,0.70166 0.04164,1.3449 0.06241,1.9296 0.02095,0.4701 0.03955,0.91395 0.05585,1.33149 h 0.2929 c 0.01403,-0.41754 0.02795,-0.86139 0.0419,-1.33149 0.02086,-0.5847 0.04164,-1.22794 0.06253,-1.9296 0.03124,-0.70163 0.05732,-1.4618 0.07809,-2.28044 z M 3.79729,842 c -0.01006,-0.25478 -0.02007,-0.52322 -0.03013,-0.80518 -0.02081,-0.4678 -0.04167,-1.05251 -0.06245,-1.75425 h 0.23431 c -0.02086,0.70174 -0.04164,1.34487 -0.0625,1.9296 C 3.86841,841.59788 3.86107,841.80781 3.85455,842 m -0.05726,0 z m -0.26132,0 v -5.54153 H 3.4266 V 842 H 3.36251 C 3.35792,841.96686 3.3533,841.93237 3.34848,841.89648 3.32762,841.77955 3.30157,841.66254 3.2703,841.54561 L 3.25684,842 m 0.27913,0 z M 2.88629,835.11703 3.10385,842 H 3.2288 l -0.21756,-6.88297 z m -0.28882,4.32354 c 0,0.4678 0.00519,0.8771 0.01559,1.22794 0.02086,0.4678 0.04173,0.81867 0.06251,1.05253 0.00938,0.10471 0.0197,0.19772 0.03112,0.27896 h 0.27289 c 0.00907,-0.0812 0.01709,-0.17425 0.0241,-0.27896 0.04166,-0.4678 0.06253,-1.22794 0.06253,-2.28047 0,0 0,-0.0584 0,-0.17544 0,-0.11693 0,-0.23385 0,-0.35078 H 2.72242 c 0,-0.46778 0.01046,-0.81865 0.03127,-1.05251 0.03126,-0.23394 0.07291,-0.35087 0.12503,-0.35087 0.03127,0 0.05724,0 0.0781,0 0.03127,0.11693 0.05207,0.17544 0.06253,0.17544 l 0.01559,-1.05254 c -0.0104,0 -0.02078,-0.0585 -0.03126,-0.1754 -0.01038,0 -0.02597,0 -0.04686,0 -0.01038,0 -0.02605,0 -0.04683,0 -0.01049,-0.11693 -0.02608,-0.17544 -0.04694,-0.17544 -0.04164,0 -0.08331,0.0585 -0.12495,0.17544 -0.03127,0.23391 -0.05732,0.46777 -0.07813,0.70163 -0.02086,0.23394 -0.03645,0.52631 -0.04691,0.87718 -0.0104,0.46777 -0.01559,0.93549 -0.01559,1.40329 z m 0.35935,0.52631 c 0,0.23386 -0.00519,0.40929 -0.01559,0.52622 0,0.23392 -0.00527,0.40927 -0.01565,0.52628 -0.0104,0.11693 -0.02608,0.17544 -0.04686,0.17544 -0.0104,0.11693 -0.02086,0.17535 -0.03126,0.17535 -0.02086,0 -0.04164,-0.0584 -0.06251,-0.17535 -0.0104,-0.11702 -0.0208,-0.23394 -0.03126,-0.35087 -0.0104,-0.11693 -0.02081,-0.23392 -0.03127,-0.35085 0,-0.11693 0,-0.29236 0,-0.52622 z m -0.27533,1.0525 c -0.0104,0.11693 -0.02599,0.17544 -0.04686,0.17544 -0.0104,0.11693 -0.03126,0.17535 -0.06253,0.17535 -0.01037,0 -0.02596,-0.0584 -0.04683,-0.17535 L 2.50968,836.45847 H 2.38462 V 842 h 0.29687 z m -0.42962,-3.68385 c 0.03127,0 0.05726,0.0585 0.07812,0.17544 v 1.40338 c 0,0.11693 -0.0104,0.17543 -0.03126,0.17543 -0.01041,0 -0.02087,0 -0.03127,0 -0.02078,0 -0.03645,0 -0.04686,0 -0.01046,0 -0.02086,-0.0585 -0.03123,-0.17543 -0.01041,0 -0.02089,-0.0585 -0.03127,-0.17544 -0.0104,-0.11693 -0.01559,-0.29234 -0.01559,-0.52628 0,-0.23386 0.01038,-0.46772 0.03118,-0.70166 0.02086,-0.11693 0.04691,-0.17544 0.07818,-0.17544 z M 2.3722,842 c 0.00887,-0.0812 0.01559,-0.17425 0.0203,-0.27896 0.0208,-0.11693 0.03645,-0.35087 0.04685,-0.70166 0.01041,-0.23394 0.01559,-0.52628 0.01559,-0.87707 v -3.50844 c -0.02077,-0.11693 -0.05204,-0.1754 -0.09371,-0.1754 -0.03124,-0.11693 -0.07291,-0.17544 -0.12503,-0.17544 -0.03124,0 -0.06251,0.0585 -0.09369,0.17544 -0.02086,0 -0.04173,0.0585 -0.06253,0.1754 -0.01038,0.23386 -0.02087,0.46781 -0.03127,0.70166 -0.01037,0.23395 -0.01559,0.52631 -0.01559,0.8771 0,0.35084 0.00522,0.64321 0.01559,0.87715 0.0104,0.23386 0.02608,0.4093 0.04686,0.52623 0.02086,0.11693 0.04167,0.23394 0.06253,0.35087 0.03127,0.11693 0.05732,0.17543 0.0781,0.17543 0.02086,0 0.03645,-0.0585 0.04694,-0.17543 0.02077,0 0.03645,0 0.04685,0 v 0.17543 c 0,0.11693 0,0.23386 0,0.35079 0,0.23392 -0.00521,0.40927 -0.01567,0.52628 -0.01041,0.11693 -0.026,0.17544 -0.04686,0.17544 -0.0104,0.11693 -0.02605,0.17535 -0.04686,0.17535 -0.02086,0 -0.04691,-0.0584 -0.07809,-0.17535 -0.02086,0 -0.03645,-0.0585 -0.04694,-0.17544 L 2.08312,842 m 0.28908,0 z M 1.71558,836.45847 V 842 H 2.0751 c 0.01143,-0.0812 0.0218,-0.17425 0.0311,-0.27896 0.02086,-0.23386 0.03126,-0.52622 0.03126,-0.87709 0.01041,-0.35085 0.0156,-0.70164 0.0156,-1.05251 v -3.33297 H 2.0281 v 3.15754 c 0,0.23394 -0.00521,0.4678 -0.01559,0.70166 0,0.23391 -0.00527,0.40935 -0.01567,0.52628 0,0.11693 -0.01041,0.23385 -0.03127,0.35087 -0.0104,0.11693 -0.02599,0.17535 -0.04686,0.17535 -0.01037,0 -0.02605,-0.0584 -0.04682,-0.17535 -0.02089,0 -0.03127,0 -0.03127,0 v -4.73635 z m -0.15134,1.0525 c 0.03127,0 0.05205,0 0.06245,0 0.02086,0.11693 0.03124,0.29237 0.03124,0.52631 0,0.11693 -0.01038,0.23386 -0.03124,0.35079 -0.0104,0.23391 -0.03118,0.40935 -0.06245,0.52628 -0.02086,0.11693 -0.04167,0.17543 -0.06253,0.17543 -0.02086,0.11693 -0.03645,0.23386 -0.04686,0.35079 -0.01046,0.23394 -0.02086,0.40938 -0.03123,0.52631 -0.01049,0.23386 -0.01568,0.46777 -0.01568,0.70163 0,0.58473 0.01568,0.99403 0.04691,1.22797 0.00434,0.0364 0.00876,0.071 0.01333,0.10352 h 0.2804 l -0.01244,-0.98062 c -0.01049,0.11693 -0.02608,0.17544 -0.04695,0.17544 -0.02077,0.11693 -0.04685,0.17535 -0.07809,0.17535 -0.02089,0 -0.04167,-0.0584 -0.06253,-0.17535 -0.01041,-0.11702 -0.01559,-0.23394 -0.01559,-0.35087 0,-0.11693 0,-0.23392 0,-0.35085 0,0 0.00518,-0.0584 0.01559,-0.17543 0.01046,0 0.02086,-0.0584 0.03126,-0.17536 0.01038,-0.11701 0.02605,-0.17543 0.04686,-0.17543 0.02086,-0.11693 0.04173,-0.23394 0.0625,-0.35087 0.02087,-0.11693 0.03646,-0.29237 0.04695,-0.52623 0.02077,-0.11701 0.03118,-0.29236 0.03118,-0.52631 0.01046,-0.1169 0.01564,-0.29233 0.01564,-0.52619 0,-0.58473 -0.02086,-1.05253 -0.0625,-1.40341 -0.03127,-0.23385 -0.08331,-0.35084 -0.15622,-0.35084 -0.04167,0 -0.07812,0.0585 -0.10939,0.17544 -0.03123,0.11693 -0.0521,0.1754 -0.0625,0.1754 l 0.03127,1.22797 c 0.01037,-0.11693 0.02605,-0.23394 0.04682,-0.35087 0.03127,0 0.06254,0 0.0938,0 z M 1.10203,835.11703 1.31958,842 h 0.12498 l -0.2175,-6.88297 z m -0.13165,4.49898 c 0,0.58473 -0.01048,0.99402 -0.03126,1.22794 -0.01046,0.35087 -0.03127,0.52622 -0.06253,0.52622 -0.01038,0 -0.02605,-0.0584 -0.04683,-0.17535 -0.02087,0 -0.03127,0 -0.03127,0 v -4.73635 H 0.67346 V 842 h 0.34095 c 0.00612,-0.0345 0.01227,-0.069 0.01842,-0.10352 0,0 0.00306,0.0345 0.00927,0.10352 h 0.28301 c 0.00882,-0.0812 0.01559,-0.17425 0.02024,-0.27896 0.02086,-0.23386 0.03124,-0.52622 0.03124,-0.87709 0.0104,-0.35085 0.01559,-0.70164 0.01559,-1.05251 v -3.33297 H 1.26723 v 3.15754 c 0,0.58473 -0.00519,0.99402 -0.01568,1.22794 -0.01037,0.35087 -0.03645,0.52622 -0.07809,0.52622 -0.02081,0 -0.04167,-0.0584 -0.06245,-0.17535 -0.01049,-0.11702 -0.02086,-0.17544 -0.03127,-0.17544 0,-0.23394 0,-0.4678 0,-0.70171 0.01041,-0.11693 0.0156,-0.35079 0.0156,-0.70166 v -3.15754 H 0.97038 Z m -0.18623,-0.17544 c 0,-0.4678 -0.00519,-0.93552 -0.01565,-1.40329 -0.0104,-0.35087 -0.02599,-0.64324 -0.04686,-0.87718 -0.02086,-0.23386 -0.04685,-0.46772 -0.07812,-0.70163 -0.03126,-0.11693 -0.06772,-0.17544 -0.10936,-0.17544 -0.03127,0 -0.06253,0.0585 -0.09377,0.17544 -0.03127,0.23391 -0.06253,0.46777 -0.09371,0.70163 -0.02087,0.23394 -0.03654,0.52631 -0.04694,0.87718 -0.01038,0.46777 -0.0156,0.93549 -0.0156,1.40329 0,0.4678 0.00522,0.8771 0.0156,1.22794 0.0104,0.35087 0.02607,0.64324 0.04694,0.8771 0.0163,0.18345 0.03268,0.33497 0.04898,0.45439 h 0.28905 c 0.01369,-0.11942 0.02605,-0.27094 0.03693,-0.45439 0.02087,-0.23386 0.03646,-0.52623 0.04686,-0.8771 0.01046,-0.35084 0.01565,-0.76014 0.01565,-1.22794 z m -0.12504,0 c 0,0.58473 -0.01037,1.05253 -0.03126,1.40338 -0.02078,0.35087 -0.05205,0.52622 -0.09369,0.52622 -0.04167,0 -0.07291,-0.17535 -0.09377,-0.52622 -0.02081,-0.35085 -0.03127,-0.81865 -0.03127,-1.40338 0,-0.58473 0.01046,-1.0525 0.03127,-1.40329 0.02086,-0.35087 0.0521,-0.52631 0.09377,-0.52631 0.04164,0 0.07291,0.17544 0.09369,0.52631 0.02089,0.35079 0.03126,0.81856 0.03126,1.40329 z m -0.65911,0 c 0,0.35087 0.00519,0.70174 0.01556,1.05253 0.01041,0.46778 0.02608,0.81865 0.04686,1.05251 0.01638,0.18345 0.03268,0.33497 0.04907,0.45439 m 0.28842,0 -0.02497,-0.98062 c -0.01038,0.11693 -0.02605,0.17544 -0.04686,0.17544 -0.02086,0.11693 -0.04164,0.17535 -0.0625,0.17535 -0.04167,0 -0.07812,-0.17535 -0.10936,-0.52622 -0.02089,-0.35085 -0.03127,-0.81865 -0.03127,-1.40338 0,-0.58473 0.01038,-1.0525 0.03127,-1.40329 0.02078,-0.35087 0.0625,-0.52631 0.12495,-0.52631 0.02086,0 0.04172,0 0.0625,0 0.02089,0.11693 0.03648,0.17544 0.04686,0.17544 l 0.01567,-1.05254 c -0.0104,-0.11693 -0.03126,-0.1754 -0.06253,-0.1754 -0.02078,-0.11693 -0.04683,-0.17544 -0.07809,-0.17544 -0.04167,0 -0.08331,0.0585 -0.12504,0.17544 -0.03118,0.23391 -0.05726,0.46777 -0.07812,0.70163 -0.02078,0.23394 -0.03645,0.52631 -0.04686,0.87718 C 0.00519,838.50505 0,838.97277 0,839.44057 M 0.39991,842 Z"
         style="fill:#606060;fill-opacity:1;fill-rule:nonzero;stroke:none"
         id="path92" />
    </g>
    <g
       id="g94"
       transform="matrix(1e-5,0.99999,-0.99999,1e-5,1307.7995,66.88003)">
      <path
         d="m 0.43747,837.68641 v -1.22797 H 0 V 842 h 0.12495 v -4.31359 z"
         style="fill:#606060;fill-opacity:1;fill-rule:nonzero;stroke:none"
         id="path96" />
    </g>
    <g
       id="g98"
       transform="matrix(1e-5,0.99999,-0.99999,1e-5,1307.7995,67.06938)">
      <path
         d="m 0.66022,842 c 0.01142,-0.0812 0.0218,-0.17425 0.03109,-0.27896 0.02087,-0.23386 0.03127,-0.52622 0.03127,-0.87709 0.01046,-0.35085 0.01568,-0.70164 0.01568,-1.05251 v -3.33297 H 0.61319 v 3.15754 c 0,0.23394 -0.00519,0.4678 -0.01559,0.70166 0,0.23391 -0.00519,0.40935 -0.01565,0.52628 0,0.11693 -0.0104,0.23385 -0.03118,0.35087 -0.01049,0.11693 -0.02608,0.17535 -0.04694,0.17535 -0.01037,0 -0.02605,-0.0584 -0.04686,-0.17535 -0.02086,0 -0.03123,0 -0.03123,0 v -4.73635 H 0.30076 V 842 Z M 0,835.11703 l 0.00683,0.46434 c 0.0104,0 0.02608,0 0.04686,0 0.03126,0 0.05213,0.11693 0.0625,0.35087 0.01041,0.11693 0.01568,0.35079 0.01568,0.70163 V 842 m 0.12495,0 v -5.36613 c 0,-0.65565 -0.01338,-1.16124 -0.04005,-1.51684 m -0.21677,0 z"
         style="fill:#606060;fill-opacity:1;fill-rule:nonzero;stroke:none"
         id="path100" />
    </g>
    <g
       id="g102"
       transform="matrix(1e-5,0.99999,-0.99999,1e-5,1307.7995,67.7207)">
      <path
         d="m 0.56242,842 v -5.54156 H 0.43744 v 3.50844 H 0.12495 v -3.50844 H 0 V 842 h 0.12495 v -0.80518 H 0.43744 V 842 Z"
         style="fill:#606060;fill-opacity:1;fill-rule:nonzero;stroke:none"
         id="path104" />
    </g>
    <g
       id="g106"
       transform="matrix(1e-5,0.99999,-0.99999,1e-5,1307.7995,68.14933)">
      <path
         d="m 0.21872,836.283 c -0.04172,0 -0.08339,0.0585 -0.12503,0.17544 -0.03127,0 -0.06254,0.0585 -0.09369,0.17543 V 842 h 0.49822 c -0.00377,-0.26833 -0.01361,-0.53677 -0.02951,-0.80518 -0.01049,-0.23394 -0.03127,-0.40938 -0.06253,-0.52631 0.04167,-0.23386 0.0729,-0.52622 0.09371,-0.87707 0.02086,-0.23394 0.03127,-0.58473 0.03127,-1.05253 0,-0.81865 -0.026,-1.4618 -0.07813,-1.9296 C 0.40099,836.45844 0.32289,836.283 0.21872,836.283 Z m -0.09377,3.68388 v -2.45591 c 0.02086,0 0.03645,0 0.04683,0 0.02086,0 0.03645,0 0.04694,0 0.02078,0 0.04164,0 0.06242,0 0.03127,0.11693 0.05213,0.17544 0.06253,0.17544 0.02087,0.11693 0.03646,0.23385 0.04686,0.35087 0.01046,0.23383 0.01565,0.46777 0.01565,0.70163 0,0.4678 -0.01565,0.76017 -0.04683,0.8771 -0.03127,0.23394 -0.07291,0.35087 -0.12504,0.35087 z m 0,1.0525 h 0.09377 c 0.05205,0 0.0885,0.0584 0.10936,0.17544 0.02906,0.21773 0.04465,0.48614 0.0466,0.80518 H 0.12495 Z"
         style="fill:#606060;fill-opacity:1;fill-rule:nonzero;stroke:none"
         id="path108" />
    </g>
    <g
       id="g110"
       transform="matrix(1e-5,0.99999,-0.99999,1e-5,1307.7995,68.45655)">
      <path
         d="M 0,835.11703 0.21745,842 h 0.04427 v -2.55597 l -0.13677,-4.327 z"
         style="fill:#606060;fill-opacity:1;fill-rule:nonzero;stroke:none"
         id="path112" />
    </g>
    <g
       id="g114"
       transform="translate(410.00581,-598.13172)">
      <text
         xml:space="preserve"
         transform="matrix(1,0,0,-1,0,835.15782)"
         style="font-variant:normal;font-weight:bold;font-size:8px;font-family:Dubai;-inkscape-font-specification:Dubai-Bold;writing-mode:lr-tb;fill:#000000;fill-opacity:1;fill-rule:nonzero;stroke:none"
         id="text118"><tspan
           x="0 4.4760189 7.4160285 11.235969 14.903858 18.69976 20.607563 22.515392 24.423193 28.619122"
           y="0"
           id="tspan116">Travelling</tspan></text>
    </g>
    <g
       id="g120"
       transform="translate(468.48314,-598.20307)">
      <text
         xml:space="preserve"
         transform="matrix(1,0,0,-1,0,835.15782)"
         style="font-variant:normal;font-weight:bold;font-size:8px;font-family:Dubai;-inkscape-font-specification:Dubai-Bold;writing-mode:lr-tb;fill:#000000;fill-opacity:1;fill-rule:nonzero;stroke:none"
         id="text124"><tspan
           x="0 5.2919431 9.0878458 12.755707 16.551638 18.45944 22.655338 26.875303 33.103275 36.899178 41.095078"
           y="0"
           id="tspan122">Development</tspan></text>
    </g>
    <g
       id="g126"
       transform="translate(38.05517,-484.09889)">
      <text
         xml:space="preserve"
         transform="matrix(1,0,0,-1,0,832.50331)"
         style="font-style:italic;font-variant:normal;font-weight:normal;font-size:10px;font-family:Verdana;-inkscape-font-specification:Verdana-Italic;writing-mode:lr-tb;fill:#7c7c7c;fill-opacity:1;fill-rule:nonzero;stroke:none"
         id="text132"><tspan
           x="0 6.6959434 12.561761 18.32984 20.933859 26.799704 32.987679 38.967194 47.254875 53.120693 58.190685 66.636139 70.705048 80.102608 86.124672 90.252228 96.118073 98.722092 104.91006 107.51408 113.70209"
           y="0"
           id="tspan128">SaylaniMassITTraining</tspan><tspan
           x="0 5.8902235 10.017779 15.947122 22.022816 26.1504 32.016216"
           y="11.47997"
           id="tspan130">Program</tspan></text>
    </g>
    <g
       id="g134"
       transform="translate(417.17086,-621.32117)">
      <text
         xml:space="preserve"
         transform="matrix(1,0,0,-1,0,835.15782)"
         style="font-variant:normal;font-weight:bold;font-size:8px;font-family:Dubai;-inkscape-font-specification:Dubai-Bold;writing-mode:lr-tb;fill:#000000;fill-opacity:1;fill-rule:nonzero;stroke:none"
         id="text138"><tspan
           x="0 5.0439968 8.863965 15.091908 16.999739 21.195639"
           y="0"
           id="tspan136">Gaming</tspan></text>
    </g>
    <g
       id="g140"
       transform="translate(468.81045,-621.32117)">
      <text
         xml:space="preserve"
         transform="matrix(1,0,0,-1,0,835.15782)"
         style="font-variant:normal;font-weight:bold;font-size:8px;font-family:Dubai;-inkscape-font-specification:Dubai-Bold;writing-mode:lr-tb;fill:#000000;fill-opacity:1;fill-rule:nonzero;stroke:none"
         id="text144"><tspan
           x="0 4.2760062 8.1440506 12.364016 14.271846 18.467745 21.407755 23.315556 27.511484"
           y="0"
           id="tspan142">Exploring</tspan></text>
    </g>
    <g
       id="g146"
       transform="translate(323.4384,-621.32511)">
      <text
         xml:space="preserve"
         transform="matrix(1,0,0,-1,0,835.15782)"
         style="font-variant:normal;font-weight:bold;font-size:8px;font-family:Dubai;-inkscape-font-specification:Dubai-Bold;writing-mode:lr-tb;fill:#000000;fill-opacity:1;fill-rule:nonzero;stroke:none"
         id="text150"><tspan
           x="0 4.3879466 8.5838461 11.987886 13.895688 17.715656 21.283371 26.879131 30.675034 33.494968 38.850918 43.046844 45.986855 49.974804 51.882607 56.078533"
           y="0"
           id="tspan148">SocialNetworking</tspan></text>
    </g>
    <g
       id="g152"
       transform="translate(38.05517,-471.22614)">
      <text
         xml:space="preserve"
         transform="matrix(1,0,0,-1,0,833.55259)"
         style="font-variant:normal;font-weight:bold;font-size:11px;font-family:Dubai;-inkscape-font-specification:Dubai-Bold;writing-mode:lr-tb;fill:#000000;fill-opacity:1;fill-rule:nonzero;stroke:none"
         id="text156"><tspan
           x="0 5.6898708 11.489953 14.165773 19.176577 25.262476 29.192486 34.497581 39.230534 44.766594 50.456467 59.589298 64.861198 68.956245 77.113106 83.199005 87.129013 92.434113 97.167061"
           y="0"
           id="tspan154">FullStack/MernStack</tspan></text>
    </g>
    <g
       id="g158"
       transform="translate(38.05515,-435.70471)">
      <text
         xml:space="preserve"
         transform="matrix(1,0,0,-1,0,833.85357)"
         style="font-variant:normal;font-weight:bold;font-size:11px;font-family:Dubai;-inkscape-font-specification:Dubai-Bold;writing-mode:lr-tb;fill:#000000;fill-opacity:1;fill-rule:nonzero;stroke:none"
         id="text162"><tspan
           x="0 10.034929 15.85681 19.951853 28.108715 34.304825 38.399895 43.671768 48.338787 55.340816 62.669819 67.941696 73.037621 78.309494 80.985313 86.807198 92.662132 97.934029"
           y="0"
           id="tspan160">WordPressDeveloper</tspan></text>
      <text
         xml:space="preserve"
         transform="matrix(1,0,0,-1,0,819.73964)"
         style="font-style:italic;font-variant:normal;font-weight:normal;font-size:10px;font-family:Verdana;-inkscape-font-specification:Verdana-Italic;writing-mode:lr-tb;fill:#7c7c7c;fill-opacity:1;fill-rule:nonzero;stroke:none"
         id="text166"><tspan
           x="0 5.6069856 8.2110043 13.988948 16.592966"
           y="0"
           id="tspan164">Fixit</tspan></text>
    </g>
    <g
       id="g168"
       transform="translate(315.68352,-407.18282)">
      <text
         xml:space="preserve"
         transform="matrix(1,0,0,-1,0,830.31332)"
         style="font-variant:normal;font-weight:bold;font-size:13px;font-family:'Open Sans';-inkscape-font-specification:'Open Sans-Bold';writing-mode:lr-tb;fill:#000000;fill-opacity:1;fill-rule:nonzero;stroke:none"
         id="text172"><tspan
           x="0 6.9947433 16.68087 27.109558 35.253128 42.641293 46.805016 57.011585 67.4403 76.269485 86.710648 95.539864 103.98186 111.12262 119.95183"
           y="0"
           id="tspan170">FUNCTIONALAREAS</tspan></text>
      <text
         xml:space="preserve"
         transform="matrix(1,0,0,-1,0,817.15101)"
         style="font-variant:normal;font-weight:bold;font-size:10px;font-family:Dubai;-inkscape-font-specification:Dubai-Bold;writing-mode:lr-tb;fill:#000000;fill-opacity:1;fill-rule:nonzero;stroke:none"
         id="text176"><tspan
           x="0 9.1098146 13.88965 21.309477 27.959585 32.739422 37.359211 42.13905 44.558987 49.838825 55.148769 62.968761 67.748596 73.028435"
           y="0"
           id="tspan174">WebDevelopment</tspan></text>
    </g>
    <g
       id="g178"
       transform="translate(36.55454,-402.38243)">
      <text
         xml:space="preserve"
         transform="matrix(1,0,0,-1,0,833.85357)"
         style="font-variant:normal;font-weight:bold;font-size:11px;font-family:Dubai;-inkscape-font-specification:Dubai-Bold;writing-mode:lr-tb;fill:#000000;fill-opacity:1;fill-rule:nonzero;stroke:none"
         id="text182"><tspan
           x="0 5.6898708 9.7849131 15.606793 21.428701 25.358683 29.398535 35.330456 41.152336 49.309227 56.638233 61.910107 67.006035 72.277908 74.953728 80.775612 86.630569 95.24662 100.51849 106.34037"
           y="0"
           id="tspan180">Front-EndDevelopment</tspan></text>
      <text
         xml:space="preserve"
         transform="matrix(1,0,0,-1,0,819.73964)"
         style="font-style:italic;font-variant:normal;font-weight:normal;font-size:10px;font-family:Verdana;-inkscape-font-specification:Verdana-Italic;writing-mode:lr-tb;fill:#7c7c7c;fill-opacity:1;fill-rule:nonzero;stroke:none"
         id="text186"><tspan
           x="0 5.6069856 11.472832 15.600388 21.52973 27.45907 33.549477 37.950405 43.767441 48.168369 54.854477 59.968376 65.834221 78.801025 82.869957 89.05793 94.127899 97.928307 100.53233 104.33273 110.52071 114.32112"
           y="0"
           id="tspan184">Farooq-e-AzamInstitute</tspan></text>
    </g>
    <g
       id="g188"
       transform="translate(38.05517,-366.82282)">
      <text
         xml:space="preserve"
         transform="matrix(1,0,0,-1,0,833.77686)"
         style="font-variant:normal;font-weight:bold;font-size:11px;font-family:Dubai;-inkscape-font-specification:Dubai-Bold;writing-mode:lr-tb;fill:#000000;fill-opacity:1;fill-rule:nonzero;stroke:none"
         id="text192"><tspan
           x="0 9.1328316 17.553713"
           y="0"
           id="tspan190">MSO</tspan></text>
      <text
         xml:space="preserve"
         transform="matrix(1,0,0,-1,25.3995,833.77686)"
         style="font-variant:normal;font-weight:bold;font-size:11px;font-family:Arial;-inkscape-font-specification:Arial-Bold;writing-mode:lr-tb;fill:#000000;fill-opacity:1;fill-rule:nonzero;stroke:none"
         id="text196"><tspan
           x="0"
           y="0"
           id="tspan194"></tspan></text>
      <text
         xml:space="preserve"
         transform="matrix(1,0,0,-1,35.34639,833.77686)"
         style="font-variant:normal;font-weight:bold;font-size:11px;font-family:Dubai;-inkscape-font-specification:Dubai-Bold;writing-mode:lr-tb;fill:#000000;fill-opacity:1;fill-rule:nonzero;stroke:none"
         id="text200"><tspan
           x="0 4.732923"
           y="0"
           id="tspan198">ce</tspan></text>
      <text
         xml:space="preserve"
         transform="matrix(1,0,0,-1,0,819.73964)"
         style="font-style:italic;font-variant:normal;font-weight:normal;font-size:10px;font-family:Verdana;-inkscape-font-specification:Verdana-Italic;writing-mode:lr-tb;fill:#7c7c7c;fill-opacity:1;fill-rule:nonzero;stroke:none"
         id="text204"><tspan
           x="0 4.0689073 11.409335 17.01635 28.122917 34.96524 41.153217 47.019062 53.207035 59.395012 65.212074"
           y="0"
           id="tspan202">INFOChannel</tspan></text>
    </g>
    <g
       id="g206"
       transform="translate(398.65377,-667.36502)">
      <text
         xml:space="preserve"
         transform="matrix(1,0,0,-1,0,828.92412)"
         style="font-variant:normal;font-weight:bold;font-size:14px;font-family:'Open Sans';-inkscape-font-specification:'Open Sans-Bold';writing-mode:lr-tb;fill:#ffffff;fill-opacity:1;fill-rule:nonzero;stroke:none"
         id="text210"><tspan
           x="0 8.6509705 19.653563 28.75561 36.723034 44.266594 55.269184 63.038326 67.53302"
           y="0"
           id="tspan208">PORTFOLIO</tspan></text>
    </g>
    <g
       id="g212"
       transform="translate(315.68352,-349.1826)">
      <text
         xml:space="preserve"
         transform="matrix(1,0,0,-1,0,833.18473)"
         style="font-variant:normal;font-weight:bold;font-size:10px;font-family:Dubai;-inkscape-font-specification:Dubai-Bold;writing-mode:lr-tb;fill:#000000;fill-opacity:1;fill-rule:nonzero;stroke:none"
         id="text220"><tspan
           x="0 5.6398678 11.159859 16.679821"
           y="0"
           id="tspan214">CSS3</tspan><tspan
           x="0 5.9599276 11.239767 16.519606 20.079695 24.309694 27.869783 31.57988 36.389992 43.809818"
           y="13.18"
           id="tspan216">Bootstrap5</tspan><tspan
           x="0 4.619792 9.4299021 14.049694 18.859804 24.379766 28.669806 32.379902 34.799839 40.109783"
           y="26.360001"
           id="tspan218">JavaScript</tspan></text>
    </g>
    <g
       id="g222"
       transform="translate(37.93405,-524.25354)">
      <text
         xml:space="preserve"
         transform="matrix(1,0,0,-1,0,824.57861)"
         style="font-variant:normal;font-weight:bold;font-size:13px;font-family:'Open Sans';-inkscape-font-specification:'Open Sans-Bold';writing-mode:lr-tb;fill:#000000;fill-opacity:1;fill-rule:nonzero;stroke:none"
         id="text226"><tspan
           x="0 7.1407561 19.258072 27.281027 34.485279 44.691845 52.664116 64.781433 71.922188 82.350906"
           y="0"
           id="tspan224">EMPLOYMENT</tspan></text>
      <text
         xml:space="preserve"
         transform="matrix(1,0,0,-1,0,803.05566)"
         style="font-variant:normal;font-weight:bold;font-size:12px;font-family:'Open Sans';-inkscape-font-specification:'Open Sans-Bold';writing-mode:lr-tb;fill:#000000;fill-opacity:1;fill-rule:nonzero;stroke:none"
         id="text230"><tspan
           x="0 6.4459276 14.22771 20.808426 27.277739 39.296608 46.802948 54.942181 64.557892 73.300591 77.133171 85.875877 94.015106 100.82421"
           y="0"
           id="tspan228">FRESHCANDIDATE</tspan></text>
    </g>
    <g
       id="g232"
       transform="translate(335.00149,-768.03486)">
      <text
         xml:space="preserve"
         transform="matrix(1,0,0,-1,0,828.92412)"
         style="font-variant:normal;font-weight:bold;font-size:14px;font-family:'Open Sans';-inkscape-font-specification:'Open Sans-Bold';writing-mode:lr-tb;fill:#ffffff;fill-opacity:1;fill-rule:nonzero;stroke:none"
         id="text236"><tspan
           x="0 7.5708566 18.573448 27.354218 31.848917 41.368111 52.633842 65.693909 73.394699 83.617882 88.112579"
           y="0"
           id="tspan234">SOCIALMEDIA</tspan></text>
    </g>
    <g
       id="g238"
       transform="translate(38.05515,-329.48889)">
      <text
         xml:space="preserve"
         transform="matrix(1,0,0,-1,0,833.85357)"
         style="font-variant:normal;font-weight:bold;font-size:11px;font-family:Dubai;-inkscape-font-specification:Dubai-Bold;writing-mode:lr-tb;fill:#000000;fill-opacity:1;fill-rule:nonzero;stroke:none"
         id="text242"><tspan
           x="0 6.2177386 11.489613 15.584655 19.514637 22.190456 28.606478 33.339432 38.644527 42.574509 50.181393 52.857212 61.014076 64.008934 69.830818 73.419792 79.241699 83.336739 91.952789 97.257881 101.18787 103.86369 109.68559 117.84245 124.04948 129.32135 134.05431 139.8651 145.68701 151.5089 154.18471 160.00659 165.6745 173.06146 176.88144 183.09918 186.09404 192.30103"
           y="0"
           id="tspan240">CerticateinInformationTechnology(CIT)</tspan></text>
      <text
         xml:space="preserve"
         transform="matrix(1,0,0,-1,0,819.73964)"
         style="font-style:italic;font-variant:normal;font-weight:normal;font-size:10px;font-family:Verdana;-inkscape-font-specification:Verdana-Italic;writing-mode:lr-tb;fill:#7c7c7c;fill-opacity:1;fill-rule:nonzero;stroke:none"
         id="text246"><tspan
           x="0 4.0689073 11.409335 17.01635 28.122917 34.96524 41.153217 47.019062 53.207035 59.395012 65.212074"
           y="0"
           id="tspan244">INFOChannel</tspan></text>
    </g>
    <g
       id="g248"
       transform="translate(315.68352,-316.94675)">
      <text
         xml:space="preserve"
         transform="matrix(1,0,0,-1,0,830.31332)"
         style="font-variant:normal;font-weight:bold;font-size:13px;font-family:'Open Sans';-inkscape-font-specification:'Open Sans-Bold';writing-mode:lr-tb;fill:#000000;fill-opacity:1;fill-rule:nonzero;stroke:none"
         id="text252"><tspan
           x="0 8.022954 13.786186 21.69496 28.899212 34.662445 42.374523 54.999611 67.624725 71.45195 79.855881 90.297043 97.50132 105.21337 113.6173 120.82156 129.22551 136.93756 144.14182 151.68243 161.24123 174.08812 181.47632 189.38509 197.29387 201.12106"
           y="0"
           id="tspan250">ProgrammingLanguages&amp;Tools</tspan></text>
      <text
         xml:space="preserve"
         transform="matrix(1,0,0,-1,0,817.15101)"
         style="font-variant:normal;font-weight:bold;font-size:10px;font-family:Dubai;-inkscape-font-specification:Dubai-Bold;writing-mode:lr-tb;fill:#000000;fill-opacity:1;fill-rule:nonzero;stroke:none"
         id="text256"><tspan
           x="0 7.0599685 12.689972 20.979893 26.049854"
           y="0"
           id="tspan254">HTML5</tspan></text>
    </g>
    <g
       id="g258"
       transform="translate(37.93408,-302.23604)">
      <text
         xml:space="preserve"
         transform="matrix(1,0,0,-1,0,829.43427)"
         style="font-variant:normal;font-weight:bold;font-size:13px;font-family:'Open Sans';-inkscape-font-specification:'Open Sans-Bold';writing-mode:lr-tb;fill:#000000;fill-opacity:1;fill-rule:nonzero;stroke:none"
         id="text262"><tspan
           x="0 8.1435404 15.284296 23.726295 31.114489 35.278214 42.272957 46.436684 54.580223 63.409435 70.79763 74.961357 85.167892 95.596611"
           y="0"
           id="tspan260">CERTIFICATIONS</tspan></text>
    </g>
    <g
       id="g264"
       transform="translate(315.68352,-277.10929)">
      <text
         xml:space="preserve"
         transform="matrix(1,0,0,-1,0,833.45896)"
         style="font-variant:normal;font-weight:bold;font-size:10px;font-family:Dubai;-inkscape-font-specification:Dubai-Bold;writing-mode:lr-tb;fill:#000000;fill-opacity:1;fill-rule:nonzero;stroke:none"
         id="text270"><tspan
           x="0 4.619792 9.4299021 14.049694 18.859804 24.379766 28.669806 32.379902 34.799839 40.109783 45.779755 50.589863 55.869705 63.259426 66.969521 71.749359 75.979362 81.289307 86.569145 91.848984 96.078979 98.498894 103.11871 110.00843 115.28827 120.06811 124.29808 126.71802 131.85791 139.24763 144.40756 149.21768 157.0377 159.45764 161.87758 164.29752 169.10759 174.9276 181.65761 184.07755 187.63763 195.01736 201.35724 203.77718 207.33727 212.49719 218.83708 221.25702 224.81711 231.87708 237.13719"
           y="0"
           id="tspan266">JavaScriptandresponsivedesignFamiliarwithGit/GitHub</tspan><tspan
           x="0 4.619792 9.3996 13.109697 17.339697 19.759634 25.039474 32.429195 36.719234 41.999073 47.278912 50.839001 54.549099 59.828938"
           y="12.76999"
           id="tspan268">versioncontrol</tspan></text>
    </g>
    <g
       id="g272"
       transform="translate(236.43153,-266.30203)">
      <text
         xml:space="preserve"
         transform="matrix(1,0,0,-1,0,834.28974)"
         style="font-style:italic;font-variant:normal;font-weight:normal;font-size:7px;font-family:Verdana;-inkscape-font-specification:Verdana-Italic;writing-mode:lr-tb;fill:#009b8c;fill-opacity:1;fill-rule:nonzero;stroke:none"
         id="text276"><tspan
           x="0 4.710104 8.7741642 11.621452 15.685512 19.192507 23.482176 25.263014 29.99007 34.071278 38.135338 42.103756 43.884567 47.391533 50.009754 54.073814"
           y="0"
           id="tspan274">Karachi,Pakistan</tspan></text>
    </g>
    <g
       id="g278"
       transform="translate(315.68352,-263.11275)">
      <text
         xml:space="preserve"
         transform="matrix(1,0,0,-1,0,834.27494)"
         style="font-variant:normal;font-weight:bold;font-size:10px;font-family:Dubai;-inkscape-font-specification:Dubai-Bold;writing-mode:lr-tb;fill:#000000;fill-opacity:1;fill-rule:nonzero;stroke:none"
         id="text282"><tspan
           x="0 9.1098146 13.88965 21.309477 27.959585 32.739422 37.359211 42.13905 44.558987 49.838825 55.148769 62.968761 67.748596 73.028435 76.588524 80.61834 87.678314 93.308342 101.59827 106.66823 111.92834 115.95818 121.59805 127.11804 132.638 137.89812 141.92796 147.88789 153.16772 158.44757 162.00766 166.23766 169.79774 173.50784 178.31795"
           y="0"
           id="tspan280">WebDevelopment:HTML5,CSS3,Bootstrap</tspan></text>
    </g>
    <g
       id="g284"
       transform="translate(37.93408,-240.82472)">
      <text
         xml:space="preserve"
         transform="matrix(1,0,0,-1,0,833.15129)"
         style="font-variant:normal;font-weight:bold;font-size:12px;font-family:'Open Sans';-inkscape-font-specification:'Open Sans-Bold';writing-mode:lr-tb;fill:#000000;fill-opacity:1;fill-rule:nonzero;stroke:none"
         id="text288"><tspan
           x="0 11.174372 18.282444 23.351385 28.66045 32.182499 38.212326 45.958988 49.481037 56.589081 61.658024 65.180038 72.469612"
           y="0"
           id="tspan286">Matriculation</tspan></text>
      <text
         xml:space="preserve"
         transform="matrix(1,0,0,-1,83.19348,833.15129)"
         style="font-variant:normal;font-weight:bold;font-size:12px;font-family:Dubai;-inkscape-font-specification:Dubai-Bold;writing-mode:lr-tb;fill:#000000;fill-opacity:1;fill-rule:nonzero;stroke:none"
         id="text294"><tspan
           x="0 7.5997701 13.399852 22.811953 27.291941 33.092022"
           y="0"
           id="tspan290">Kamran</tspan><tspan
           x="-83.193481 -76.421425 -70.081345 -63.681423 -60.74955 -57.817677 -50.08173 -43.429722 -38.253716 -31.901871 -25.53812 -19.174339"
           y="13.23"
           id="tspan292">PublicSchool</tspan></text>
    </g>
    <g
       id="g296"
       transform="translate(278.65715,-256.30203)">
      <text
         xml:space="preserve"
         transform="matrix(1,0,0,-1,0,834.28974)"
         style="font-style:italic;font-variant:normal;font-weight:normal;font-size:7px;font-family:Verdana;-inkscape-font-specification:Verdana-Italic;writing-mode:lr-tb;fill:#009b8c;fill-opacity:1;fill-rule:nonzero;stroke:none"
         id="text300"><tspan
           x="0 4.3100786 8.6201859 12.930293"
           y="0"
           id="tspan298">2022</tspan></text>
    </g>
    <g
       id="g302"
       transform="translate(315.68352,-244.87345)">
      <text
         xml:space="preserve"
         transform="matrix(1,0,0,-1,0,829.43427)"
         style="font-variant:normal;font-weight:bold;font-size:13px;font-family:'Open Sans';-inkscape-font-specification:'Open Sans-Bold';writing-mode:lr-tb;fill:#000000;fill-opacity:1;fill-rule:nonzero;stroke:none"
         id="text306"><tspan
           x="0 7.0201702 14.941559 18.768784 22.59601 26.423235"
           y="0"
           id="tspan304">Skills</tspan></text>
    </g>
    <g
       id="g308"
       transform="translate(335.77724,-717.13621)">
      <text
         xml:space="preserve"
         transform="matrix(1,0,0,-1,0,833.96058)"
         style="font-variant:normal;font-weight:bold;font-size:10px;font-family:Dubai;-inkscape-font-specification:Dubai-Bold;writing-mode:lr-tb;fill:#ffffff;fill-opacity:1;fill-rule:nonzero;stroke:none"
         id="text312"><tspan
           x="0 7.0800376 14.160075 21.240114 23.51004 28.090034 33.249969 36.019928 39.92984 45.539772 51.169636 56.779568 62.439533 67.569366 73.229301 78.889267 84.019096 88.079018 92.088768 96.728798 99.498756 105.12859 110.75845 115.88828 119.89803 125.55797 130.48798 134.49773 139.65767 142.42763 145.19756 147.46748 152.04747 157.65744 161.71736 167.20721 172.33708 174.60699 179.187 184.80679"
           y="0"
           id="tspan310">www.salt_n_pepper-clone-by-ali.surge.sh/</tspan></text>
    </g>
    <g
       id="g314"
       transform="translate(340.90815,-689.38464)">
      <text
         xml:space="preserve"
         transform="matrix(1,0,0,-1,0,836.18112)"
         style="font-variant:normal;font-weight:bold;font-size:7px;font-family:Dubai;-inkscape-font-specification:Dubai-Bold;writing-mode:lr-tb;fill:#374458;fill-opacity:1;fill-rule:nonzero;stroke:none"
         id="text318"><tspan
           x="0 3.7869999 6.3769999 8.967 12.782 15.841 17.283001 20.993 24.702999 28.399 30.191 32.780998 36.568001 40.348 44.162998 45.605 48.706001 52.5 59.646824 63.356823 67.318825 70.622826 74.066826 77.860825 80.520821 87.996552 91.77655 95.563545 99.028549 106.17537 113.32219 116.78719 120.58119 123.2412 127.91719 129.7092 131.50119 134.16119 137.85719 139.64919"
           y="0"
           id="tspan316">https://github.com/Syed-Muhammad-Ali-git</tspan></text>
    </g>
    <g
       id="g320"
       transform="translate(340.15912,-718.89817)">
      <text
         xml:space="preserve"
         transform="matrix(1,0,0,-1,0,836.18112)"
         style="font-variant:normal;font-weight:bold;font-size:7px;font-family:Dubai;-inkscape-font-specification:Dubai-Bold;writing-mode:lr-tb;fill:#374458;fill-opacity:1;fill-rule:nonzero;stroke:none"
         id="text324"><tspan
           x="0 4.3867278 7.5767527 10.766749 15.18171 18.840755 20.882664 25.192602 29.50251 33.161556 37.226524 39.618423 42.808422 47.188431 51.582275 55.962254 60.377216 64.421036 68.835999 73.250931 77.294777 80.589798 83.849724 87.550636 89.942543 94.336388 98.730225 102.77405 106.03397 110.44891 114.35278 117.61268 121.67765 124.06955 126.46145 128.50333 132.1624 136.54239 139.83743 144.13335 148.17719 150.21907 153.87814 158.26488"
           y="0"
           id="tspan322">https://salt_n_pepper-clone-by-ali.surge.sh/</tspan></text>
    </g>
    <g
       id="g326"
       transform="translate(236.43153,-222.1414)">
      <text
         xml:space="preserve"
         transform="matrix(1,0,0,-1,0,834.28974)"
         style="font-style:italic;font-variant:normal;font-weight:normal;font-size:7px;font-family:Verdana;-inkscape-font-specification:Verdana-Italic;writing-mode:lr-tb;fill:#009b8c;fill-opacity:1;fill-rule:nonzero;stroke:none"
         id="text330"><tspan
           x="0 4.710104 8.7741642 11.621452 15.685512 19.192507 23.482176 25.263014 29.99007 34.071278 38.135338 42.103756 43.884567 47.391533 50.009754 54.073814"
           y="0"
           id="tspan328">Karachi,Pakistan</tspan></text>
    </g>
    <g
       id="g332"
       transform="translate(315.68349,-217.43606)">
      <text
         xml:space="preserve"
         transform="matrix(1,0,0,-1,0,834.27494)"
         style="font-variant:normal;font-weight:bold;font-size:10px;font-family:Dubai;-inkscape-font-specification:Dubai-Bold;writing-mode:lr-tb;fill:#000000;fill-opacity:1;fill-rule:nonzero;stroke:none"
         id="text336"><tspan
           x="0 2.709893 7.9897323 11.239767 16.519606 20.229704 28.049726 32.859837 36.419926 38.839863 44.119701 51.509422 57.139454 61.919292 66.209297 71.479103 76.758942 82.038788 84.458717 89.738564 94.878426 101.56833 105.02824 107.73814 113.36816 118.93797 127.75782 133.27782 138.55765 141.80771 145.3678 152.09782 156.90793 160.61803 167.50775 173.02774 177.80757 181.51767 186.13747 188.55737 192.84741 197.62724"
           y="0"
           id="tspan334">InformationTechnology(IT)&amp;SoftwareServices</tspan></text>
    </g>
    <g
       id="g338"
       transform="translate(37.93408,-209.71205)">
      <text
         xml:space="preserve"
         transform="matrix(1,0,0,-1,0,832.6089)"
         style="font-variant:normal;font-weight:bold;font-size:12px;font-family:Dubai;-inkscape-font-specification:Dubai-Bold;writing-mode:lr-tb;fill:#000000;fill-opacity:1;fill-rule:nonzero;stroke:none"
         id="text342"><tspan
           x="0 7.1798458"
           y="0"
           id="tspan340">Bu</tspan></text>
      <text
         xml:space="preserve"
         transform="matrix(1,0,0,-1,13.51993,832.6089)"
         style="font-variant:normal;font-weight:bold;font-size:12px;font-family:Arial;-inkscape-font-specification:Arial-Bold;writing-mode:lr-tb;fill:#000000;fill-opacity:1;fill-rule:nonzero;stroke:none"
         id="text346"><tspan
           x="0"
           y="0"
           id="tspan344"></tspan></text>
      <text
         xml:space="preserve"
         transform="matrix(1,0,0,-1,21.07902,832.6089)"
         style="font-variant:normal;font-weight:bold;font-size:12px;font-family:Dubai;-inkscape-font-specification:Dubai-Bold;writing-mode:lr-tb;fill:#000000;fill-opacity:1;fill-rule:nonzero;stroke:none"
         id="text350"><tspan
           x="0 5.7639403 10.243928 15.432095 21.795845 28.159626 36.483448 44.49152 50.255463 56.451401 60.931389 66.695328 75.01915 81.814934 88.178711 91.110588 94.042458 99.806396 106.00234"
           y="0"
           id="tspan348">erzoneDegreeCollege</tspan></text>
    </g>
    <g
       id="g352"
       transform="translate(278.90527,-212.1414)">
      <text
         xml:space="preserve"
         transform="matrix(1,0,0,-1,0,834.28974)"
         style="font-style:italic;font-variant:normal;font-weight:normal;font-size:7px;font-family:Verdana;-inkscape-font-specification:Verdana-Italic;writing-mode:lr-tb;fill:#009b8c;fill-opacity:1;fill-rule:nonzero;stroke:none"
         id="text356"><tspan
           x="0 4.3100786 8.6201859 12.930293"
           y="0"
           id="tspan354">2025</tspan></text>
    </g>
    <g
       id="g358"
       transform="translate(315.68352,-199.19673)">
      <text
         xml:space="preserve"
         transform="matrix(1,0,0,-1,0,829.43427)"
         style="font-variant:normal;font-weight:bold;font-size:13px;font-family:'Open Sans';-inkscape-font-specification:'Open Sans-Bold';writing-mode:lr-tb;fill:#000000;fill-opacity:1;fill-rule:nonzero;stroke:none"
         id="text362"><tspan
           x="0 4.1637259 14.592416 24.075439 33.761566 40.781765 48.169926 56.611927 60.775654 67.916435"
           y="0"
           id="tspan360">INDUSTRIES</tspan></text>
    </g>
    <g
       id="g364"
       transform="translate(37.93408,-196.00299)">
      <text
         xml:space="preserve"
         transform="matrix(1,0,0,-1,0,831.0825)"
         style="font-variant:normal;font-weight:bold;font-size:12px;font-family:'Open Sans';-inkscape-font-specification:'Open Sans-Bold';writing-mode:lr-tb;fill:#000000;fill-opacity:1;fill-rule:nonzero;stroke:none"
         id="text368"><tspan
           x="0 3.8325827 11.579216 16.648157 23.597916 28.907007 40.550087 47.499847 54.953602 58.47562 65.583694 70.652634"
           y="0"
           id="tspan366">Intermediate</tspan></text>
    </g>
    <g
       id="g370"
       transform="translate(349.67968,-702.85992)">
      <text
         xml:space="preserve"
         transform="matrix(1,0,0,-1,0,833.96058)"
         style="font-variant:normal;font-weight:bold;font-size:10px;font-family:Dubai;-inkscape-font-specification:Dubai-Bold;writing-mode:lr-tb;fill:#ffffff;fill-opacity:1;fill-rule:nonzero;stroke:none"
         id="text374"><tspan
           x="0 7.070003 14.140006 21.210009 23.469902 29.119804 34.739632 40.099579 45.219372 53.379353 58.999153 64.61898 68.618866 75.688866 80.808662 86.458595 91.028549 93.788445 97.688522 102.80832 106.8082 111.9581 114.71803 117.47792 119.73782 124.30777 129.90787 133.95793 139.43777 144.55757 146.81747 151.38742 156.99722"
           y="0"
           id="tspan372">www.pokemon-website-ali.surge.sh/</tspan></text>
    </g>
    <g
       id="g376"
       transform="translate(352.48873,-704.05322)">
      <text
         xml:space="preserve"
         transform="matrix(1,0,0,-1,0,835.45877)"
         style="font-variant:normal;font-weight:bold;font-size:8px;font-family:Dubai;-inkscape-font-specification:Dubai-Bold;writing-mode:lr-tb;fill:#374458;fill-opacity:1;fill-rule:nonzero;stroke:none"
         id="text380"><tspan
           x="0 4.527751 7.687644 10.847566 15.40749 17.255451 21.695301 26.135149 30.695103 35.230988 39.558899 43.694786 50.262691 54.798576 59.334461 62.574291 68.270233 72.40612 76.966042 80.66214 82.909897 86.069824 90.205711 93.445541 97.605469 99.853256 102.10104 103.94898 107.64507 112.16503 115.44503 119.86877 124.00466 125.85262 129.54869 134.07645"
           y="0"
           id="tspan378">http://pokemon-website-ali.surge.sh/</tspan></text>
    </g>
    <g
       id="g382"
       transform="translate(236.43153,-177.98023)">
      <text
         xml:space="preserve"
         transform="matrix(1,0,0,-1,0,834.28974)"
         style="font-style:italic;font-variant:normal;font-weight:normal;font-size:7px;font-family:Verdana;-inkscape-font-specification:Verdana-Italic;writing-mode:lr-tb;fill:#009b8c;fill-opacity:1;fill-rule:nonzero;stroke:none"
         id="text386"><tspan
           x="0 4.710104 8.7741642 11.621452 15.685512 19.192507 23.482176 25.263014 29.99007 34.071278 38.135338 42.103756 43.884567 47.391533 50.009754 54.073814"
           y="0"
           id="tspan384">Karachi,Pakistan</tspan></text>
    </g>
    <g
       id="g388"
       transform="translate(320.24313,-171.01312)">
      <text
         xml:space="preserve"
         transform="matrix(1,0,0,-1,0,834.46891)"
         style="font-variant:normal;font-weight:bold;font-size:9px;font-family:Dubai;-inkscape-font-specification:Dubai-Bold;writing-mode:lr-tb;fill:#ffffff;fill-opacity:1;fill-rule:nonzero;stroke:none"
         id="text392"><tspan
           x="0 5.8718834 10.609653 15.347452 20.112406 26.28533 31.329355 36.058167 40.795937 43.985962 48.723732 52.516716 57.245499 61.983299"
           y="0"
           id="tspan390">AdobePhotoshop</tspan></text>
    </g>
    <g
       id="g394"
       transform="translate(37.93408,-167.07739)">
      <text
         xml:space="preserve"
         transform="matrix(1,0,0,-1,0,832.69649)"
         style="font-variant:normal;font-weight:bold;font-size:12px;font-family:Dubai;-inkscape-font-specification:Dubai-Bold;writing-mode:lr-tb;fill:#000000;fill-opacity:1;fill-rule:nonzero;stroke:none"
         id="text398"><tspan
           x="0 3.2797985 6.2116723 15.623745 23.983738 32.099613 38.46339 41.395267 46.967129 52.731071 57.211086 62.315121 65.247025 69.547066"
           y="0"
           id="tspan396">IlmaUniversity</tspan></text>
    </g>
    <g
       id="g400"
       transform="translate(269.66055,-167.98022)">
      <text
         xml:space="preserve"
         transform="matrix(1,0,0,-1,0,834.28974)"
         style="font-style:italic;font-variant:normal;font-weight:normal;font-size:7px;font-family:Verdana;-inkscape-font-specification:Verdana-Italic;writing-mode:lr-tb;fill:#009b8c;fill-opacity:1;fill-rule:nonzero;stroke:none"
         id="text404"><tspan
           x="0 4.081181 6.9284692 10.958286 14.465254 18.495071 22.784769"
           y="0"
           id="tspan402">Present</tspan></text>
    </g>
    <g
       id="g406"
       transform="translate(37.93408,-151.73337)">
      <text
         xml:space="preserve"
         transform="matrix(1,0,0,-1,0,831.0825)"
         style="font-variant:normal;font-weight:bold;font-size:12px;font-family:'Open Sans';-inkscape-font-specification:'Open Sans-Bold';writing-mode:lr-tb;fill:#000000;fill-opacity:1;fill-rule:nonzero;stroke:none"
         id="text410"><tspan
           x="0 8.1392031 13.964031 19.78886 27.078434 33.108292 36.63031 43.738384 48.807297 58.734283 67.476982 74.426743 81.065933 86.375031 93.324783 103.25174 110.64685 115.95592 123.24549 129.88469 135.19374 142.30182 156.92213 160.84848 167.31779 170.59967 177.1804"
           y="0"
           id="tspan408">AssociateDegreeProgram(S.E)</tspan></text>
    </g>
    <g
       id="g412"
       transform="translate(395.8158,-148.74866)">
      <text
         xml:space="preserve"
         transform="matrix(1,0,0,-1,0,834.10103)"
         style="font-variant:normal;font-weight:bold;font-size:10px;font-family:Dubai;-inkscape-font-specification:Dubai-Bold;writing-mode:lr-tb;fill:#00211e;fill-opacity:1;fill-rule:nonzero;stroke:none"
         id="text416"><tspan
           x="0 8.2898932 15.919766 23.039602 28.199566 33.359501 36.069393 41.70929"
           y="0"
           id="tspan414">MSOFFICE</tspan></text>
    </g>
    <g
       id="g418"
       transform="translate(321.37157,-149.8714)">
      <text
         xml:space="preserve"
         transform="matrix(1,0,0,-1,0,835.15782)"
         style="font-variant:normal;font-weight:bold;font-size:8px;font-family:Dubai;-inkscape-font-specification:Dubai-Bold;writing-mode:lr-tb;fill:#00211e;fill-opacity:1;fill-rule:nonzero;stroke:none"
         id="text422"><tspan
           x="0 5.1080317 11.155862 15.639675 21.307577 26.599522"
           y="0"
           id="tspan420">VSCODE</tspan></text>
    </g>
    <g
       id="g424"
       transform="translate(37.93408,-125.90062)">
      <text
         xml:space="preserve"
         transform="matrix(1,0,0,-1,0,829.43427)"
         style="font-variant:normal;font-weight:bold;font-size:13px;font-family:'Open Sans';-inkscape-font-specification:'Open Sans-Bold';writing-mode:lr-tb;fill:#000000;fill-opacity:1;fill-rule:nonzero;stroke:none"
         id="text428"><tspan
           x="0 7.1407561 16.623779 26.309906 34.453445 43.282658 50.670822 54.834576 65.041115"
           y="0"
           id="tspan426">EDUCATION</tspan></text>
    </g>
    <g
       id="g430"
       transform="translate(316.23928,-125.90008)">
      <text
         xml:space="preserve"
         transform="matrix(1,0,0,-1,0,829.43427)"
         style="font-variant:normal;font-weight:bold;font-size:13px;font-family:'Open Sans';-inkscape-font-specification:'Open Sans-Bold';writing-mode:lr-tb;fill:#000000;fill-opacity:1;fill-rule:nonzero;stroke:none"
         id="text434"><tspan
           x="0 7.0201702 17.226709 24.221453 31.609644 44.037865 52.86705 61.309048 68.449837"
           y="0"
           id="tspan432">SOFTWARES</tspan></text>
    </g>
    <g
       id="g436"
       transform="translate(37.93306,-27.86786)">
      <text
         xml:space="preserve"
         transform="matrix(1,0,0,-1,0,828.43597)"
         style="font-variant:normal;font-weight:bold;font-size:21px;font-family:Dubai;-inkscape-font-specification:Dubai-Bold;writing-mode:lr-tb;fill:#00211e;fill-opacity:1;fill-rule:nonzero;stroke:none"
         id="text440"><tspan
           x="0 11.745836 24.962145 36.414028 55.118126 72.680855 86.988525 101.96833 115.85628 133.41901 150.98174 164.86966 183.57375 197.46167 208.26253"
           y="0"
           id="tspan438">SYEDMUHAMMADALI</tspan></text>
      <text
         xml:space="preserve"
         transform="matrix(1,0,0,-1,0,807.03003)"
         style="font-variant:normal;font-weight:bold;font-size:10px;font-family:Dubai;-inkscape-font-specification:Dubai-Bold;writing-mode:lr-tb;fill:#009b8c;fill-opacity:1;fill-rule:nonzero;stroke:none"
         id="text444"><tspan
           x="0 9.1098146 13.88965 21.309477 27.959585 32.739422 37.359211 42.13905 44.558987 49.838825 55.148769 62.968761 67.748596 73.028435 76.588524 83.858368 89.018303 94.278419 96.698349 101.22817 106.74816 110.30825 115.11836 119.4084 124.42836 131.69821 139.98813 144.76796 148.47806 155.86778 161.38777 164.94786 169.75797 174.04797"
           y="0"
           id="tspan442">WebDevelopment/FullStack/MernStack</tspan></text>
    </g>
    <g
       id="g446"
       transform="translate(418.65177,-40.16925)">
      <text
         xml:space="preserve"
         transform="matrix(1,0,0,-1,85.94575,833.92302)"
         style="font-variant:normal;font-weight:bold;font-size:7px;font-family:Dubai;-inkscape-font-specification:Dubai-Bold;writing-mode:lr-tb;fill:#000000;fill-opacity:1;fill-rule:nonzero;stroke:none"
         id="text452"><tspan
           x="0 3.6399968 7.2800221 12.35503 15.995055 19.635052 24.71006 28.350084 31.99011 35.630108 39.270134 42.910156 46.550182"
           y="0"
           id="tspan448">+923190586822</tspan><tspan
           x="-85.945747 -81.276665 -76.607552 -71.938461 -70.636536 -68.984589 -67.332672 -63.678814 -60.206799 -56.902935 -53.249077 -51.59713 -47.943272 -46.641346 -43.680416 -40.026558 -34.594643 -31.024689 -29.372742 -25.718884 -22.148932 -19.22987 -16.065981 -12.762115 -9.1082573 -6.5883141 -1.156396 2.4836292 6.1305709 9.4555254 14.887444 20.319361 23.623226 27.277084 29.797028 33.121983 34.773899 36.425846"
           y="11.98998"
           id="tspan450">www.linkedin.com/in/syed-muhammed-ali/</tspan></text>
    </g>
    <g
       id="g454"
       transform="translate(426.29975,-23.56036)">
      <text
         xml:space="preserve"
         transform="matrix(1,0,0,-1,0,836.55567)"
         style="font-variant:normal;font-weight:bold;font-size:7px;font-family:Dubai;-inkscape-font-specification:Dubai-Bold;writing-mode:lr-tb;fill:#000000;fill-opacity:1;fill-rule:nonzero;stroke:none"
         id="text458"><tspan
           x="0 2.9190614 6.0829511 9.386816 12.71177 16.365629 21.797546 25.437572 29.084513 32.40947 37.841385 43.273304 46.577168 50.231026 53.556011 55.207928 56.859844 62.291763 65.616745 68.584793 72.231735 75.556686 78.111748 84.285522 87.841476 93.273392 96.598343 98.25029 99.902214 101.20413 104.16509 107.81895"
           y="0"
           id="tspan456">syeadmuhammedalimazhar@gmail.com</tspan></text>
    </g>
    <g
       id="g460"
       transform="translate(363.7421,-598.06046)">
      <text
         xml:space="preserve"
         transform="matrix(1,0,0,-1,0,835.15782)"
         style="font-variant:normal;font-weight:bold;font-size:8px;font-family:Dubai;-inkscape-font-specification:Dubai-Bold;writing-mode:lr-tb;fill:#000000;fill-opacity:1;fill-rule:nonzero;stroke:none"
         id="text464"><tspan
           x="0 6.6039023 10.799802 14.467691 16.375492 20.171396"
           y="0"
           id="tspan462">Movies</tspan></text>
    </g>
    <g
       id="g466"
       transform="translate(315.68352,-439.41274)">
      <text
         xml:space="preserve"
         transform="matrix(1,0,0,-1,0,832.87706)"
         style="font-variant:normal;font-weight:bold;font-size:10px;font-family:Dubai;-inkscape-font-specification:Dubai-Bold;writing-mode:lr-tb;fill:#000000;fill-opacity:1;fill-rule:nonzero;stroke:none"
         id="text482"><tspan
           x="0 5.159934 8.8700314 14.149871 19.42971 22.989798 26.649694 32.029709 37.309551 44.699303 51.34938 56.129215 60.749008 65.528847 67.948784 73.228622 78.538567 86.358589 91.13842 96.418259"
           y="0"
           id="tspan468">Front-EndDevelopment</tspan><tspan
           x="0 6.7398801 9.4497728 14.609735 21.349615 29.579498 36.229607 41.009441 45.239441 47.659378 52.799244 60.188969 66.058784 70.838615 75.068619 80.378563 85.658401 90.93824 95.168236 97.588173 102.20797"
           y="13.63997"
           id="tspan470">UI/UXDesignResponsive</tspan><tspan
           x="0 9.1098146 13.88965 21.309477 27.959585 32.739422 36.969421 39.389359 44.529221 51.918945 57.438934 62.718777 65.968811 69.5289 76.258942 81.069054 84.779152"
           y="27.27994"
           id="tspan472">WebDesignSoftware</tspan><tspan
           x="0 6.6500788 11.429914 16.049707 20.829544 23.249479 28.52932 33.839264 41.659286 46.439121 51.71896 57.388931 62.548866 67.808975 70.228912 74.758736 80.278725 83.838814 88.648926 92.938957"
           y="40.91991"
           id="tspan474">DevelopmentFullStack</tspan><tspan
           x="0 6.6500788 11.429914 16.049707 20.829544 23.249479 28.52932 33.839264 41.659286 46.439121 51.71896 57.388931 60.098824 67.838737 73.358734 78.138565 81.848633 86.46846 88.888367 93.178406 97.958237 104.29813 109.10823 114.38807"
           y="54.559879"
           id="tspan476">DevelopmentITServicesand</tspan><tspan
           x="0 5.5199623 10.799802 13.219739 18.479849 22.039936 24.459873 29.739714 35.019554 41.359436 47.899334 53.209274 58.519218 60.939156 63.359093 67.649132 72.459244 76.019333 78.439262 83.719109"
           y="68.199852"
           id="tspan478">SolutionsApplication</tspan><tspan
           x="0 6.6500788 11.429914 16.049707 20.829544 23.249479 28.52932 33.839264 41.659286 46.439121 51.71896"
           y="81.839821"
           id="tspan480">Development</tspan></text>
    </g>
    <g
       id="g484"
       transform="translate(358.87156,-735.08669)">
      <text
         xml:space="preserve"
         transform="matrix(1,0,0,-1,0,836.18112)"
         style="font-variant:normal;font-weight:bold;font-size:7px;font-family:Dubai;-inkscape-font-specification:Dubai-Bold;writing-mode:lr-tb;fill:#374458;fill-opacity:1;fill-rule:nonzero;stroke:none"
         id="text488"><tspan
           x="0 4.0068002 6.816699 9.6265984 13.661603 16.940552 18.602531 22.532513 26.462494 28.474298 36.061085 39.746098 43.661907 47.325798 50.205601 53.526585 55.538391 59.552277 63.566193 67.230087 70.109886 74.14489 77.668839 80.548637 84.23362 86.24543 88.257233 89.919182 93.198135 97.198189 100.11311 104.02892 107.69281 109.35479 112.63374 116.64054"
           y="0"
           id="tspan486">https://image-clone-by-ali.surge.sh/</tspan></text>
    </g>
    <g
       id="g490"
       transform="translate(336.59385,-687.06952)">
      <text
         xml:space="preserve"
         transform="matrix(1,0,0,-1,0,833.96058)"
         style="font-variant:normal;font-weight:bold;font-size:10px;font-family:Dubai;-inkscape-font-specification:Dubai-Bold;writing-mode:lr-tb;fill:#ffffff;fill-opacity:1;fill-rule:nonzero;stroke:none"
         id="text494"><tspan
           x="0 6.7900534 13.580135 20.37019 22.350161 27.550062 30.029867 33.649822 38.979637 44.299614 49.669598 51.64957 55.999645 61.33952 69.219551 74.439552 80.019386 84.659416 89.49929 94.839165 98.558929 106.90872 112.2287 117.55854 122.42852 130.30858 138.18861 143.05858 148.39847 152.11826 158.71815 161.19797 163.67776 167.39754 172.59744 175.07724"
           y="0"
           id="tspan492">www.github.com/Syed-Muhammad-Ali-git</tspan></text>
    </g>
    <g
       id="g496"
       transform="translate(315.70118,-571.69463)">
      <text
         xml:space="preserve"
         transform="matrix(1,0,0,-1,-7.50243,827.50861)"
         style="font-variant:normal;font-weight:bold;font-size:13px;font-family:'Open Sans';-inkscape-font-specification:'Open Sans-Bold';writing-mode:lr-tb;fill:#000000;fill-opacity:1;fill-rule:nonzero;stroke:none"
         id="text500"><tspan
           x="0 4.1637545 14.592416 21.980608 29.121365 37.563362 44.704121 51.724319 59.11248"
           y="0"
           id="tspan498">INTERESTS</tspan></text>
      <text
         xml:space="preserve"
         transform="matrix(1,0,0,-1,0,809.87204)"
         style="font-variant:normal;font-weight:bold;font-size:8px;font-family:Dubai;-inkscape-font-specification:Dubai-Bold;writing-mode:lr-tb;fill:#000000;fill-opacity:1;fill-rule:nonzero;stroke:none"
         id="text504"><tspan
           x="0 6.6039023 10.783899 14.140006 16.047808"
           y="0"
           id="tspan502">Music</tspan></text>
    </g>
    <g
       id="g506"
       transform="translate(356.29583,-733.32471)">
      <text
         xml:space="preserve"
         transform="matrix(1,0,0,-1,0,833.96058)"
         style="font-variant:normal;font-weight:bold;font-size:10px;font-family:Dubai;-inkscape-font-specification:Dubai-Bold;writing-mode:lr-tb;fill:#ffffff;fill-opacity:1;fill-rule:nonzero;stroke:none"
         id="text510"><tspan
           x="0 6.8699999 13.74 20.610001 22.67 25.23 33.189999 38.139999 43.419998 48.34 52.139999 56.57 59.130001 64.550003 69.970001 74.889999 78.690002 84.139999 88.860001 92.660004 97.610001 100.17 102.73 104.79 109.16 114.56 118.41 123.69 128.61 130.67 135.03999 140.45"
           y="0"
           id="tspan508">www.image-clone-by-ali.surge.sh/</tspan></text>
    </g>
  </g>
</svg>
